<svg width="189" height="196" viewBox="0 0 189 196" fill="none" xmlns="http://www.w3.org/2000/svg">
<mask id="path-1-outside-1_1518_7339" maskUnits="userSpaceOnUse" x="75.6169" y="0" width="113" height="107" fill="black">
<rect fill="white" x="75.6169" width="113" height="107"/>
<path fill-rule="evenodd" clip-rule="evenodd" d="M85.1718 3C81.5516 3 78.6169 5.93469 78.6169 9.55482V77.0692C78.6169 80.6893 81.5516 83.624 85.1718 83.624H158.642C158.658 83.6475 158.675 83.6708 158.692 83.694L173.383 103.505C174.7 105.281 177.52 104.35 177.52 102.139V83.624H179.779C183.399 83.624 186.333 80.6893 186.333 77.0692V9.55483C186.333 5.9347 183.399 3 179.779 3H85.1718Z"/>
</mask>
<path fill-rule="evenodd" clip-rule="evenodd" d="M85.1718 3C81.5516 3 78.6169 5.93469 78.6169 9.55482V77.0692C78.6169 80.6893 81.5516 83.624 85.1718 83.624H158.642C158.658 83.6475 158.675 83.6708 158.692 83.694L173.383 103.505C174.7 105.281 177.52 104.35 177.52 102.139V83.624H179.779C183.399 83.624 186.333 80.6893 186.333 77.0692V9.55483C186.333 5.9347 183.399 3 179.779 3H85.1718Z" fill="#9F95FF"/>
<path d="M158.642 83.624L160.417 82.4019L159.774 81.4691H158.642V83.624ZM158.692 83.694L160.423 82.4104L160.423 82.4104L158.692 83.694ZM173.383 103.505L171.652 104.789L173.383 103.505ZM177.52 83.624V81.4691H175.365V83.624H177.52ZM80.7718 9.55482C80.7718 7.1248 82.7417 5.15488 85.1718 5.15488V0.845118C80.3615 0.845118 76.4621 4.74459 76.4621 9.55482H80.7718ZM80.7718 77.0692V9.55482H76.4621V77.0692H80.7718ZM85.1718 81.4691C82.7417 81.4691 80.7718 79.4992 80.7718 77.0692H76.4621C76.4621 81.8794 80.3615 85.7789 85.1718 85.7789V81.4691ZM158.642 81.4691H85.1718V85.7789H158.642V81.4691ZM156.867 84.8461C156.897 84.8905 156.929 84.9343 156.961 84.9776L160.423 82.4104C160.42 82.4073 160.418 82.4045 160.417 82.4019L156.867 84.8461ZM156.961 84.9776L171.652 104.789L175.114 102.222L160.423 82.4104L156.961 84.9776ZM171.652 104.789C174.207 108.233 179.675 106.427 179.675 102.139H175.365C175.365 102.184 175.359 102.205 175.357 102.21C175.355 102.215 175.353 102.218 175.351 102.221C175.344 102.23 175.319 102.255 175.27 102.271C175.221 102.287 175.186 102.282 175.175 102.279C175.171 102.278 175.168 102.277 175.163 102.274C175.159 102.271 175.141 102.258 175.114 102.222L171.652 104.789ZM179.675 102.139V83.624H175.365V102.139H179.675ZM179.779 81.4691H177.52V85.7789H179.779V81.4691ZM184.178 77.0692C184.178 79.4992 182.209 81.4691 179.779 81.4691V85.7789C184.589 85.7789 188.488 81.8794 188.488 77.0692H184.178ZM184.178 9.55483V77.0692H188.488V9.55483H184.178ZM179.779 5.15488C182.209 5.15488 184.178 7.12481 184.178 9.55483H188.488C188.488 4.74458 184.589 0.845118 179.779 0.845118V5.15488ZM85.1718 5.15488H179.779V0.845118H85.1718V5.15488Z" fill="white" mask="url(#path-1-outside-1_1518_7339)"/>
<path d="M144.184 42.7684C144.659 42.3489 145.177 41.9503 145.736 41.5728C146.309 41.1952 146.925 40.8666 147.582 40.5869C148.239 40.3072 148.952 40.0905 149.721 39.9367C150.49 39.7689 151.322 39.685 152.217 39.685C153.434 39.685 154.539 39.8528 155.532 40.1884C156.538 40.524 157.398 41.0064 158.112 41.6357C158.825 42.251 159.377 42.9991 159.769 43.8801C160.16 44.761 160.356 45.7469 160.356 46.8376C160.356 47.9004 160.202 48.8233 159.894 49.6064C159.587 50.3755 159.202 51.0467 158.741 51.62C158.279 52.1933 157.769 52.6898 157.21 53.1093C156.664 53.5288 156.147 53.9273 155.657 54.3049C155.168 54.6684 154.741 55.032 154.378 55.3956C154.028 55.7452 153.819 56.1437 153.749 56.5912L153.266 59.6536H149.721L149.365 56.2346C149.281 55.5774 149.372 55.004 149.637 54.5146C149.917 54.0112 150.281 53.5567 150.728 53.1512C151.19 52.7317 151.7 52.3332 152.259 51.9556C152.819 51.5641 153.343 51.1446 153.833 50.6971C154.322 50.2356 154.727 49.7252 155.049 49.1659C155.385 48.5925 155.553 47.9143 155.553 47.1313C155.553 46.6278 155.455 46.1804 155.259 45.7888C155.077 45.3833 154.818 45.0407 154.483 44.761C154.147 44.4674 153.742 44.2436 153.266 44.0898C152.805 43.936 152.301 43.8591 151.756 43.8591C150.959 43.8591 150.281 43.95 149.721 44.1318C149.176 44.2996 148.708 44.4953 148.316 44.7191C147.938 44.9288 147.617 45.1246 147.351 45.3064C147.085 45.4742 146.848 45.5581 146.638 45.5581C146.135 45.5581 145.771 45.3483 145.547 44.9288L144.184 42.7684ZM148.148 67.4984C148.148 67.0649 148.225 66.6524 148.379 66.2609C148.547 65.8693 148.77 65.5337 149.05 65.254C149.33 64.9744 149.665 64.7506 150.057 64.5828C150.449 64.415 150.868 64.3311 151.315 64.3311C151.763 64.3311 152.175 64.415 152.553 64.5828C152.945 64.7506 153.28 64.9744 153.56 65.254C153.854 65.5337 154.084 65.8693 154.252 66.2609C154.42 66.6524 154.504 67.0649 154.504 67.4984C154.504 67.9459 154.42 68.3654 154.252 68.7569C154.084 69.1345 153.854 69.4631 153.56 69.7428C153.28 70.0225 152.945 70.2392 152.553 70.393C152.175 70.5608 151.763 70.6447 151.315 70.6447C150.868 70.6447 150.449 70.5608 150.057 70.393C149.665 70.2392 149.33 70.0225 149.05 69.7428C148.77 69.4631 148.547 69.1345 148.379 68.7569C148.225 68.3654 148.148 67.9459 148.148 67.4984Z" fill="white"/>
<path d="M161.896 35.2182C162.252 34.9036 162.64 34.6047 163.06 34.3215C163.49 34.0384 163.951 33.7919 164.444 33.5822C164.937 33.3724 165.472 33.2098 166.049 33.0945C166.626 32.9686 167.25 32.9057 167.921 32.9057C168.833 32.9057 169.662 33.0316 170.407 33.2833C171.162 33.535 171.807 33.8968 172.342 34.3687C172.876 34.8302 173.291 35.3913 173.584 36.052C173.878 36.7127 174.025 37.4521 174.025 38.2702C174.025 39.0672 173.909 39.7594 173.679 40.3467C173.448 40.9236 173.16 41.427 172.813 41.857C172.467 42.287 172.085 42.6593 171.665 42.9739C171.256 43.2885 170.868 43.5874 170.501 43.8706C170.134 44.1433 169.814 44.416 169.541 44.6887C169.279 44.9508 169.122 45.2497 169.069 45.5854L168.708 47.8822H166.049L165.781 45.3179C165.719 44.825 165.787 44.395 165.986 44.0279C166.196 43.6504 166.468 43.3095 166.804 43.0054C167.15 42.6907 167.533 42.3918 167.952 42.1087C168.372 41.815 168.765 41.5004 169.132 41.1648C169.499 40.8187 169.803 40.4359 170.045 40.0164C170.296 39.5864 170.422 39.0777 170.422 38.4904C170.422 38.1129 170.349 37.7772 170.202 37.4836C170.066 37.1794 169.872 36.9225 169.62 36.7127C169.368 36.4925 169.064 36.3247 168.708 36.2093C168.361 36.094 167.984 36.0363 167.575 36.0363C166.977 36.0363 166.468 36.1045 166.049 36.2408C165.64 36.3666 165.289 36.5135 164.995 36.6813C164.712 36.8386 164.47 36.9854 164.271 37.1218C164.072 37.2476 163.894 37.3105 163.736 37.3105C163.359 37.3105 163.086 37.1532 162.918 36.8386L161.896 35.2182ZM164.869 53.7658C164.869 53.4407 164.927 53.1313 165.042 52.8376C165.168 52.544 165.336 52.2923 165.545 52.0825C165.755 51.8727 166.007 51.7049 166.301 51.5791C166.594 51.4532 166.909 51.3903 167.244 51.3903C167.58 51.3903 167.889 51.4532 168.173 51.5791C168.466 51.7049 168.718 51.8727 168.928 52.0825C169.148 52.2923 169.321 52.544 169.447 52.8376C169.573 53.1313 169.636 53.4407 169.636 53.7658C169.636 54.1014 169.573 54.416 169.447 54.7097C169.321 54.9928 169.148 55.2393 168.928 55.4491C168.718 55.6588 168.466 55.8214 168.173 55.9367C167.889 56.0626 167.58 56.1255 167.244 56.1255C166.909 56.1255 166.594 56.0626 166.301 55.9367C166.007 55.8214 165.755 55.6588 165.545 55.4491C165.336 55.2393 165.168 54.9928 165.042 54.7097C164.927 54.416 164.869 54.1014 164.869 53.7658Z" fill="white"/>
<line x1="134.508" y1="9.53512" x2="158.774" y2="9.53512" stroke="white" stroke-width="3.27741" stroke-linecap="round"/>
<line x1="134.508" y1="16.0634" x2="166.008" y2="16.0634" stroke="white" stroke-width="3.27741" stroke-linecap="round"/>
<line x1="134.508" y1="22.592" x2="166.008" y2="22.592" stroke="white" stroke-width="3.27741" stroke-linecap="round"/>
<line x1="87.8181" y1="62.1687" x2="127.627" y2="62.1687" stroke="white" stroke-width="3.27741" stroke-linecap="round"/>
<line x1="87.8181" y1="68.697" x2="138.725" y2="68.697" stroke="white" stroke-width="3.27741" stroke-linecap="round"/>
<line x1="87.8181" y1="75.2253" x2="138.725" y2="75.2253" stroke="white" stroke-width="3.27741" stroke-linecap="round"/>
<path d="M107.133 10.9928C107.154 10.9573 107.174 10.9419 107.191 10.9328C107.212 10.9216 107.24 10.9134 107.273 10.9134C107.306 10.9134 107.334 10.9216 107.355 10.9328C107.372 10.9419 107.392 10.9573 107.414 10.9928L123.792 38.2432C123.815 38.2807 123.818 38.3065 123.818 38.3252C123.818 38.3485 123.811 38.3781 123.794 38.4083C123.777 38.4385 123.755 38.4594 123.735 38.4715C123.719 38.4812 123.696 38.4915 123.652 38.4915H90.8944C90.8506 38.4915 90.8267 38.4812 90.8108 38.4715C90.7908 38.4594 90.7689 38.4385 90.7518 38.4083C90.7347 38.3781 90.7281 38.3485 90.728 38.3252C90.7279 38.3065 90.7314 38.2807 90.754 38.2432L107.133 10.9928Z" stroke="white" stroke-width="2.94967"/>
<path d="M107.341 20.6265L107.341 29.1132" stroke="white" stroke-width="3.60515" stroke-linecap="round"/>
<path d="M107.341 33.3562V33.3562" stroke="white" stroke-width="3.60515" stroke-linecap="round"/>
<mask id="path-14-inside-2_1518_7339" fill="white">
<path fill-rule="evenodd" clip-rule="evenodd" d="M63.679 93.5823C65.9459 93.5823 67.7836 95.4199 67.7836 97.6868V139.963C67.7836 142.23 65.9459 144.068 63.679 144.068H17.6733C17.6632 144.083 17.6528 144.097 17.6421 144.112L8.44241 156.517C7.6177 157.629 5.85189 157.046 5.85189 155.662L5.8519 144.068H4.4376C2.17072 144.068 0.333061 142.23 0.333061 139.963V97.6868C0.333061 95.4199 2.17073 93.5823 4.4376 93.5823H63.679Z"/>
</mask>
<path fill-rule="evenodd" clip-rule="evenodd" d="M63.679 93.5823C65.9459 93.5823 67.7836 95.4199 67.7836 97.6868V139.963C67.7836 142.23 65.9459 144.068 63.679 144.068H17.6733C17.6632 144.083 17.6528 144.097 17.6421 144.112L8.44241 156.517C7.6177 157.629 5.85189 157.046 5.85189 155.662L5.8519 144.068H4.4376C2.17072 144.068 0.333061 142.23 0.333061 139.963V97.6868C0.333061 95.4199 2.17073 93.5823 4.4376 93.5823H63.679Z" fill="#CBC6FD"/>
<path d="M17.6733 144.068L15.8988 142.845L16.5411 141.913H17.6733V144.068ZM17.6421 144.112L15.9112 142.828L15.9113 142.828L17.6421 144.112ZM8.44241 156.517L10.1733 157.801L8.44241 156.517ZM5.85189 155.662H3.69701H5.85189ZM5.8519 144.068V141.913H8.00678L8.00678 144.068H5.8519ZM65.6287 97.6868C65.6287 96.6101 64.7558 95.7372 63.679 95.7372V91.4274C67.136 91.4274 69.9385 94.2298 69.9385 97.6868H65.6287ZM65.6287 139.963V97.6868H69.9385V139.963H65.6287ZM63.679 141.913C64.7558 141.913 65.6287 141.04 65.6287 139.963H69.9385C69.9385 143.42 67.136 146.223 63.679 146.223V141.913ZM17.6733 141.913H63.679V146.223H17.6733V141.913ZM19.4479 145.29C19.4237 145.326 19.3987 145.36 19.3729 145.395L15.9113 142.828C15.9069 142.834 15.9028 142.84 15.8988 142.845L19.4479 145.29ZM19.373 145.395L10.1733 157.801L6.71152 155.234L15.9112 142.828L19.373 145.395ZM10.1733 157.801C8.11152 160.581 3.69701 159.123 3.69701 155.662H8.00677C8.00677 154.969 7.12388 154.678 6.71152 155.234L10.1733 157.801ZM3.69701 155.662V144.068H8.00678L8.00677 155.662H3.69701ZM4.4376 141.913H5.8519V146.223H4.4376V141.913ZM2.48795 139.963C2.48795 141.04 3.36083 141.913 4.4376 141.913V146.223C0.980614 146.223 -1.82182 143.42 -1.82182 139.963H2.48795ZM2.48795 97.6868V139.963H-1.82182V97.6868H2.48795ZM4.4376 95.7372C3.36084 95.7372 2.48795 96.6101 2.48795 97.6868H-1.82182C-1.82182 94.2298 0.980621 91.4274 4.4376 91.4274V95.7372ZM63.679 95.7372H4.4376V91.4274H63.679V95.7372Z" fill="white" mask="url(#path-14-inside-2_1518_7339)"/>
<line x1="11.4541" y1="107.602" x2="35.4061" y2="107.602" stroke="white" stroke-width="3.43693" stroke-linecap="round"/>
<line x1="11.4541" y1="117.822" x2="60.7512" y2="117.822" stroke="white" stroke-width="3.43693" stroke-linecap="round"/>
<line x1="11.4541" y1="128.042" x2="50.1226" y2="128.042" stroke="white" stroke-width="3.43693" stroke-linecap="round"/>
<g filter="url(#filter0_d_1518_7339)">
<mask id="path-19-inside-3_1518_7339" fill="white">
<path fill-rule="evenodd" clip-rule="evenodd" d="M40.8201 125.47C38.5532 125.47 36.7156 127.307 36.7156 129.574V171.851C36.7156 174.118 38.5532 175.955 40.8201 175.955H86.826C86.8361 175.97 86.8464 175.984 86.8571 175.999L96.0568 188.404C96.8815 189.517 98.6473 188.933 98.6473 187.549L98.6473 175.955H100.062C102.328 175.955 104.166 174.118 104.166 171.851V129.574C104.166 127.307 102.328 125.47 100.062 125.47H40.8201Z"/>
</mask>
<path fill-rule="evenodd" clip-rule="evenodd" d="M40.8201 125.47C38.5532 125.47 36.7156 127.307 36.7156 129.574V171.851C36.7156 174.118 38.5532 175.955 40.8201 175.955H86.826C86.8361 175.97 86.8464 175.984 86.8571 175.999L96.0568 188.404C96.8815 189.517 98.6473 188.933 98.6473 187.549L98.6473 175.955H100.062C102.328 175.955 104.166 174.118 104.166 171.851V129.574C104.166 127.307 102.328 125.47 100.062 125.47H40.8201Z" fill="#9F95FF"/>
<path d="M86.826 175.955L88.6005 174.733L87.9581 173.8H86.826V175.955ZM86.8571 175.999L85.1262 177.282L85.1262 177.282L86.8571 175.999ZM96.0568 188.404L94.3259 189.688L96.0568 188.404ZM98.6473 187.549H100.802H98.6473ZM98.6473 175.955V173.8H96.4924L96.4924 175.955H98.6473ZM38.8705 129.574C38.8705 128.498 39.7434 127.625 40.8201 127.625V123.315C37.3631 123.315 34.5607 126.117 34.5607 129.574H38.8705ZM38.8705 171.851V129.574H34.5607V171.851H38.8705ZM40.8201 173.8C39.7434 173.8 38.8705 172.928 38.8705 171.851H34.5607C34.5607 175.308 37.3631 178.11 40.8201 178.11V173.8ZM86.826 173.8H40.8201V178.11H86.826V173.8ZM85.0515 177.178C85.0759 177.213 85.1008 177.248 85.1262 177.282L88.588 174.715C88.5921 174.721 88.5962 174.727 88.6005 174.733L85.0515 177.178ZM85.1262 177.282L94.3259 189.688L97.7877 187.121L88.588 174.715L85.1262 177.282ZM94.3259 189.688C96.3877 192.468 100.802 191.01 100.802 187.549H96.4924C96.4924 186.856 97.3753 186.565 97.7877 187.121L94.3259 189.688ZM100.802 187.549V175.955H96.4924L96.4924 187.549H100.802ZM100.062 173.8H98.6473V178.11H100.062V173.8ZM102.011 171.851C102.011 172.928 101.138 173.8 100.062 173.8V178.11C103.519 178.11 106.321 175.308 106.321 171.851H102.011ZM102.011 129.574V171.851H106.321V129.574H102.011ZM100.062 127.625C101.138 127.625 102.011 128.498 102.011 129.574H106.321C106.321 126.117 103.519 123.315 100.062 123.315V127.625ZM40.8201 127.625H100.062V123.315H40.8201V127.625Z" fill="white" mask="url(#path-19-inside-3_1518_7339)"/>
<path d="M58.865 159.632C57.4114 159.632 56.063 159.395 54.8196 158.922C53.5937 158.45 52.5254 157.784 51.6147 156.926C50.7216 156.068 50.0211 155.061 49.5132 153.905C49.0228 152.749 48.7777 151.488 48.7777 150.122C48.7777 148.756 49.0228 147.495 49.5132 146.339C50.0211 145.184 50.7303 144.177 51.641 143.319C52.5517 142.46 53.6199 141.795 54.8458 141.322C56.0717 140.849 57.4027 140.613 58.8387 140.613C60.2923 140.613 61.6232 140.849 62.8316 141.322C64.0575 141.795 65.117 142.46 66.0102 143.319C66.9208 144.177 67.6301 145.184 68.138 146.339C68.6458 147.478 68.8998 148.739 68.8998 150.122C68.8998 151.488 68.6458 152.758 68.138 153.931C67.6301 155.087 66.9208 156.094 66.0102 156.952C65.117 157.793 64.0575 158.45 62.8316 158.922C61.6232 159.395 60.301 159.632 58.865 159.632ZM58.8387 156.007C59.6618 156.007 60.4149 155.866 61.0979 155.586C61.7984 155.306 62.4113 154.903 62.9367 154.378C63.4621 153.852 63.8649 153.231 64.1451 152.513C64.4428 151.795 64.5916 150.998 64.5916 150.122C64.5916 149.247 64.4428 148.45 64.1451 147.732C63.8649 147.014 63.4621 146.392 62.9367 145.867C62.4288 145.341 61.8246 144.938 61.1241 144.658C60.4236 144.378 59.6618 144.238 58.8387 144.238C58.0156 144.238 57.2538 144.378 56.5533 144.658C55.8703 144.938 55.2661 145.341 54.7407 145.867C54.2154 146.392 53.8038 147.014 53.5061 147.732C53.2259 148.45 53.0858 149.247 53.0858 150.122C53.0858 150.98 53.2259 151.777 53.5061 152.513C53.8038 153.231 54.2066 153.852 54.7145 154.378C55.2399 154.903 55.8528 155.306 56.5533 155.586C57.2538 155.866 58.0156 156.007 58.8387 156.007ZM75.907 155.113L75.6706 150.201L84.4707 140.928H89.1992L81.2659 149.466L78.9017 151.987L75.907 155.113ZM72.098 159.316V140.928H76.3273V159.316H72.098ZM84.6809 159.316L78.1399 151.304L80.9244 148.283L89.6457 159.316H84.6809Z" fill="white"/>
</g>
<defs>
<filter id="filter0_d_1518_7339" x="20.0922" y="108.846" width="90.436" height="86.5037" filterUnits="userSpaceOnUse" color-interpolation-filters="sRGB">
<feFlood flood-opacity="0" result="BackgroundImageFix"/>
<feColorMatrix in="SourceAlpha" type="matrix" values="0 0 0 0 0 0 0 0 0 0 0 0 0 0 0 0 0 0 127 0" result="hardAlpha"/>
<feOffset dx="-5.13067" dy="-5.13067"/>
<feGaussianBlur stdDeviation="5.74636"/>
<feComposite in2="hardAlpha" operator="out"/>
<feColorMatrix type="matrix" values="0 0 0 0 0.0156863 0 0 0 0 0.0509804 0 0 0 0 0.0705882 0 0 0 0.36 0"/>
<feBlend mode="normal" in2="BackgroundImageFix" result="effect1_dropShadow_1518_7339"/>
<feBlend mode="normal" in="SourceGraphic" in2="effect1_dropShadow_1518_7339" result="shape"/>
</filter>
</defs>
</svg>
