<svg width="183" height="186" viewBox="0 0 183 186" fill="none" xmlns="http://www.w3.org/2000/svg">
<path d="M22.5419 37.4704L1.62878 93.9165C0.711436 96.3925 1.86556 99.1563 4.27132 100.245L11.0388 103.306C11.6188 103.568 12.1438 103.938 12.5857 104.397L63.285 156.969C63.4652 157.156 63.656 157.328 63.8663 157.48C68.142 160.576 76.3841 163.683 82.0109 157.163C84.1677 154.664 87.8863 153.401 90.9774 154.56C96.36 156.577 102.959 156.799 107.235 150.569C109.221 147.675 113.232 146.134 116.528 147.339C123.082 149.737 131.27 149.585 135.846 139.814C137.044 137.256 139.827 135.686 142.614 136.146C161.961 139.334 162.405 122.136 156.722 114.484L109.011 63.8828C107.905 62.7099 106.304 62.1384 104.705 62.3459L92.3484 63.9499C91.2404 64.0937 90.2026 64.6231 89.392 65.3919C70.37 83.4332 55.3132 71.6209 48.4886 61.0281C47.2621 59.1244 47.7498 56.6523 49.4323 55.1365L77.4344 29.9091C79.3845 28.1523 79.3368 25.262 76.7181 25.0857C67.7865 24.4844 49.439 32.6722 45.8612 33.2656C43.43 33.6689 34.1997 34.1442 27.5465 34.0907C25.3373 34.0729 23.3094 35.3988 22.5419 37.4704Z" fill="#9F95FF"/>
<path d="M86.2105 59.9584C71.6558 74.0753 61.182 68.5402 56.1928 62.0243C54.8167 60.2271 55.3383 57.738 57.0288 56.2327L80.8673 35.0061C81.3585 34.5688 81.9307 34.232 82.5515 34.015L106.707 25.5687C107.761 25.2001 108.901 25.1907 109.96 25.5459C120.477 29.0737 139.96 35.5824 145.167 37.2187C149.608 38.6146 160.654 38.2221 168.471 37.6406C171.183 37.4389 173.615 39.3632 173.968 42.0594L181.721 101.214C181.899 102.574 181.514 103.948 180.654 105.018L175.341 111.628C173.488 113.933 170.054 114.148 167.928 112.093L110.876 56.9467C109.731 55.84 108.129 55.3411 106.559 55.6017L89.0183 58.5109C87.9599 58.6865 86.9806 59.2115 86.2105 59.9584Z" fill="#9F95FF"/>
<path d="M22.5419 37.4704L1.62878 93.9165C0.711436 96.3925 1.86556 99.1563 4.27132 100.245L11.0388 103.306C11.6188 103.568 12.1438 103.938 12.5857 104.397L63.285 156.969C63.4652 157.156 63.656 157.328 63.8663 157.48C68.142 160.576 76.3841 163.683 82.0109 157.163C84.1677 154.664 87.8863 153.401 90.9774 154.56C96.36 156.577 102.959 156.799 107.235 150.569C109.221 147.675 113.232 146.134 116.528 147.339C123.082 149.737 131.27 149.585 135.846 139.814C137.044 137.256 139.827 135.686 142.614 136.146C161.961 139.334 162.405 122.136 156.722 114.484L109.011 63.8828C107.905 62.7099 106.304 62.1384 104.705 62.3459L92.3484 63.9499C91.2404 64.0937 90.2026 64.6231 89.392 65.3919C70.37 83.4332 55.3132 71.6209 48.4886 61.0281C47.2621 59.1244 47.7498 56.6523 49.4323 55.1365L77.4344 29.9091C79.3845 28.1523 79.3368 25.262 76.7181 25.0857C67.7865 24.4844 49.439 32.6722 45.8612 33.2656C43.43 33.6689 34.1997 34.1442 27.5465 34.0907C25.3373 34.0729 23.3094 35.3988 22.5419 37.4704Z" stroke="white" stroke-width="2"/>
<path d="M86.2105 59.9584C71.6558 74.0753 61.182 68.5402 56.1928 62.0243C54.8167 60.2271 55.3383 57.738 57.0288 56.2327L80.8673 35.0061C81.3585 34.5688 81.9307 34.232 82.5515 34.015L106.707 25.5687C107.761 25.2001 108.901 25.1907 109.96 25.5459C120.477 29.0737 139.96 35.5824 145.167 37.2187C149.608 38.6146 160.654 38.2221 168.471 37.6406C171.183 37.4389 173.615 39.3632 173.968 42.0594L181.721 101.214C181.899 102.574 181.514 103.948 180.654 105.018L175.341 111.628C173.488 113.933 170.054 114.148 167.928 112.093L110.876 56.9467C109.731 55.84 108.129 55.3411 106.559 55.6017L89.0183 58.5109C87.9599 58.6865 86.9806 59.2115 86.2105 59.9584Z" stroke="white" stroke-width="2"/>
</svg>
