<svg width="189" height="190" viewBox="0 0 189 190" fill="none" xmlns="http://www.w3.org/2000/svg">
<path fill-rule="evenodd" clip-rule="evenodd" d="M182.131 115.544C183.452 113.398 181.804 110.899 179.283 110.899H145.245C143.262 110.899 141.654 112.507 141.654 114.491V126.013C141.654 127.559 142.692 128.88 143.942 129.789C152.325 135.885 151.899 157.317 133.397 157.317C115.08 156.965 116.012 135.461 123.19 129.854C124.573 128.773 125.926 127.314 125.926 125.559V102.245C126.057 100.147 127.499 95.794 132.217 95.1646C136.634 94.5754 166.896 94.8595 184.291 95.1133C186.185 95.141 187.783 93.6938 187.659 91.8034C187.192 84.6364 183.81 72.9244 172.784 64.3861C171.592 63.4631 171.009 61.9265 171.316 60.4505C177.169 32.2652 157.118 21.184 143.658 18.5491C141.856 18.1964 140.524 16.6441 140.037 14.8741C136.323 1.38255 110.029 -6.6881 103.247 17.6004C103.163 17.899 103.121 18.221 103.121 18.5311V44.762C103.121 46.7455 104.728 48.3535 106.712 48.3535H118.066C119.496 48.3535 120.75 47.4655 121.66 46.3621C127.809 38.9043 147.643 37.3779 148.731 56.6143C148.862 61.2036 146.215 70.6969 134.576 71.9557C131.259 72.1846 124.627 71.2948 121.529 66.4621C120.685 65.1452 119.359 64.0883 117.795 64.0883H105.926C103.942 64.0883 102.334 65.6963 102.334 67.6798V168.725C102.334 175.412 103.042 188 116.882 188C127.745 188 131.891 181.538 133.045 176.222C133.497 174.14 135.245 172.372 137.373 172.267C152.226 171.527 174.605 162.422 171.04 129.732C170.888 128.334 171.521 126.948 172.645 126.105C176.93 122.892 180.092 118.855 182.131 115.544ZM7.20278 74.4562C5.88168 76.6023 7.52986 79.1006 10.0501 79.1006H44.0884C46.0719 79.1006 47.6799 77.4927 47.6799 75.5092V63.9872C47.6799 62.4415 46.6419 61.1202 45.3918 60.2112C37.0081 54.1155 37.4347 32.683 55.937 32.683C74.2536 33.0354 73.3213 54.5394 66.1439 60.1463C64.7604 61.227 63.4077 62.6856 63.4077 64.4412V87.7548C63.2766 89.8528 61.8349 94.2061 57.1166 94.8355C52.6994 95.4247 22.4377 95.1405 5.04288 94.8867C3.14863 94.8591 1.55101 96.3062 1.67416 98.1967C2.14105 105.364 5.52313 117.076 16.5491 125.614C17.741 126.537 18.3241 128.074 18.0176 129.55C12.1643 157.735 32.2157 168.816 45.6757 171.451C47.4773 171.804 48.8093 173.356 49.2965 175.126C53.0103 188.618 79.3043 196.688 86.087 172.4C86.1704 172.101 86.213 171.779 86.213 171.469V145.238C86.213 143.255 84.6051 141.647 82.6216 141.647H71.2676C69.8375 141.647 68.5835 142.535 67.6737 143.638C61.5243 151.096 41.6907 152.622 40.6024 133.386C40.4713 128.796 43.1188 119.303 54.7574 118.044C58.0747 117.815 64.7065 118.705 67.8042 123.538C68.6483 124.855 69.9748 125.912 71.5389 125.912H83.4079C85.3915 125.912 86.9994 124.304 86.9994 122.32V21.2752C86.9994 14.5879 86.2917 2.0001 72.4512 2.0001C61.5881 2.0001 57.4426 8.46226 56.2885 13.7785C55.8366 15.8603 54.0885 17.6276 51.9609 17.7335C37.1072 18.4729 14.7287 27.5781 18.2934 60.2685C18.4458 61.6658 17.8126 63.0518 16.6882 63.895C12.4031 67.1083 9.24126 71.1446 7.20278 74.4562Z" fill="#9F95FF"/>
<path d="M133.397 157.317L133.376 158.394L133.386 158.395H133.397V157.317ZM125.926 102.245L124.851 102.178L124.848 102.212V102.245H125.926ZM132.217 95.1646L132.075 94.0966L132.217 95.1646ZM148.731 56.6143L149.808 56.5835L149.808 56.5685L149.807 56.5534L148.731 56.6143ZM134.576 71.9557L134.65 73.0306L134.671 73.0292L134.692 73.0269L134.576 71.9557ZM55.937 32.683L55.9577 31.6057L55.9473 31.6055H55.937V32.683ZM63.4077 87.7548L64.483 87.822L64.4851 87.7884V87.7548H63.4077ZM57.1166 94.8355L57.259 95.9035L57.1166 94.8355ZM40.6024 133.386L39.5254 133.417L39.5258 133.432L39.5267 133.447L40.6024 133.386ZM54.7574 118.044L54.6832 116.969L54.6624 116.971L54.6415 116.973L54.7574 118.044ZM18.2934 60.2685L17.2223 60.3853L18.2934 60.2685ZM56.2885 13.7785L57.3414 14.0071L56.2885 13.7785ZM67.8042 123.538L66.8971 124.119L67.8042 123.538ZM67.6737 143.638L66.8424 142.952L67.6737 143.638ZM16.5491 125.614L17.2088 124.762L16.5491 125.614ZM18.0176 129.55L19.0725 129.769L18.0176 129.55ZM5.04288 94.8867L5.02716 95.964L5.04288 94.8867ZM7.20278 74.4562L6.28525 73.8914L7.20278 74.4562ZM171.04 129.732L172.111 129.615L171.04 129.732ZM172.645 126.105L173.292 126.967L172.645 126.105ZM133.045 176.222L131.992 175.993L133.045 176.222ZM137.373 172.267L137.426 173.343L137.373 172.267ZM103.247 17.6004L102.209 17.3106L103.247 17.6004ZM143.658 18.5491L143.451 19.6065L143.658 18.5491ZM140.037 14.8741L141.076 14.5882L140.037 14.8741ZM86.087 172.4L85.0492 172.11L86.087 172.4ZM172.784 64.3861L173.444 63.5342L172.784 64.3861ZM171.316 60.4505L170.261 60.2314L171.316 60.4505ZM121.529 66.4621L122.436 65.8807L121.529 66.4621ZM123.19 129.854L122.526 129.005L123.19 129.854ZM45.6757 171.451L45.4687 172.508L45.6757 171.451ZM49.2965 175.126L50.3353 174.84L49.2965 175.126ZM184.291 95.1133L184.306 94.036L184.291 95.1133ZM187.659 91.8034L188.735 91.7333L187.659 91.8034ZM66.1439 60.1463L66.8072 60.9953L66.1439 60.1463ZM143.942 129.789L143.308 130.66L143.942 129.789ZM121.66 46.3621L120.829 45.6767L121.66 46.3621ZM182.131 115.544L183.048 116.109L182.131 115.544ZM45.3918 60.2112L44.7581 61.0826L45.3918 60.2112ZM145.245 111.977H179.283V109.822H145.245V111.977ZM142.731 126.013V114.491H140.576V126.013H142.731ZM133.397 158.395C138.24 158.395 141.991 156.987 144.721 154.699C147.443 152.417 149.074 149.325 149.803 146.074C150.53 142.829 150.366 139.392 149.466 136.355C148.568 133.327 146.911 130.616 144.575 128.917L143.308 130.66C145.164 132.01 146.598 134.264 147.4 136.968C148.199 139.664 148.344 142.728 147.7 145.603C147.057 148.473 145.637 151.119 143.337 153.047C141.045 154.968 137.804 156.24 133.397 156.24V158.395ZM122.526 129.005C120.495 130.591 118.995 133.217 118.145 136.162C117.291 139.124 117.061 142.52 117.674 145.756C118.288 148.997 119.757 152.122 122.342 154.464C124.937 156.816 128.574 158.302 133.376 158.394L133.417 156.24C129.06 156.156 125.945 154.822 123.789 152.867C121.621 150.903 120.337 148.236 119.791 145.355C119.245 142.471 119.449 139.417 120.216 136.759C120.988 134.085 122.295 131.92 123.853 130.703L122.526 129.005ZM124.848 102.245V125.559H127.003V102.245H124.848ZM132.075 94.0966C129.366 94.4579 127.57 95.9068 126.459 97.5506C125.368 99.1628 124.926 100.968 124.851 102.178L127.001 102.312C127.057 101.425 127.401 100.004 128.244 98.7578C129.065 97.5431 130.35 96.5006 132.359 96.2326L132.075 94.0966ZM184.306 94.036C175.607 93.9091 163.688 93.7745 153.39 93.7454C148.242 93.7308 143.495 93.7426 139.756 93.795C136.05 93.8469 133.257 93.9389 132.075 94.0966L132.359 96.2326C133.386 96.0956 136.031 96.0022 139.786 95.9496C143.507 95.8975 148.241 95.8857 153.384 95.9003C163.67 95.9294 175.58 96.0638 184.275 96.1907L184.306 94.036ZM172.125 65.238C182.846 73.5401 186.132 84.9283 186.584 91.8734L188.735 91.7333C188.253 84.3445 184.775 72.3087 173.444 63.5342L172.125 65.238ZM143.451 19.6065C150.031 20.8947 158.168 24.242 163.929 30.6394C169.644 36.986 173.124 46.4458 170.261 60.2314L172.371 60.6696C175.361 46.2699 171.742 36.0964 165.53 29.1974C159.363 22.3492 150.744 18.8384 143.865 17.4917L143.451 19.6065ZM104.284 17.8902C105.926 12.0114 108.717 8.19127 111.955 5.91141C115.196 3.62916 118.974 2.82754 122.702 3.14332C130.245 3.78241 137.287 8.94533 138.998 15.1601L141.076 14.5882C139.073 7.31133 131.111 1.69314 122.884 0.996133C118.725 0.643871 114.426 1.53546 110.714 4.14948C106.998 6.7659 103.958 11.0451 102.209 17.3106L104.284 17.8902ZM104.198 44.762V18.5311H102.043V44.762H104.198ZM118.066 47.2761H106.712V49.4309H118.066V47.2761ZM149.807 56.5534C149.524 51.5557 148.015 47.8035 145.723 45.1447C143.431 42.487 140.426 41.0018 137.29 40.4186C131.1 39.267 124.188 41.6026 120.829 45.6767L122.491 47.0476C125.281 43.6638 131.361 41.5073 136.896 42.5371C139.624 43.0446 142.165 44.3186 144.091 46.5518C146.015 48.784 147.394 52.0547 147.655 56.6751L149.807 56.5534ZM134.692 73.0269C140.83 72.3631 144.684 69.5017 146.96 66.1377C149.206 62.8171 149.879 59.0656 149.808 56.5835L147.654 56.645C147.714 58.7522 147.129 62.0421 145.175 64.9302C143.25 67.7749 139.961 70.2896 134.46 70.8845L134.692 73.0269ZM120.622 67.0435C122.349 69.7369 125.03 71.2859 127.638 72.1319C130.244 72.9773 132.871 73.1534 134.65 73.0306L134.502 70.8808C132.964 70.987 130.616 70.8326 128.303 70.0821C125.991 69.3322 123.808 68.02 122.436 65.8807L120.622 67.0435ZM105.926 65.1658H117.795V63.0109H105.926V65.1658ZM103.412 168.725V67.6798H101.257V168.725H103.412ZM116.882 186.923C113.59 186.923 111.16 186.176 109.35 185.02C107.539 183.864 106.275 182.253 105.39 180.405C103.599 176.664 103.412 172.068 103.412 168.725H101.257C101.257 172.069 101.424 177.111 103.446 181.335C104.469 183.471 105.976 185.424 108.191 186.837C110.406 188.251 113.255 189.077 116.882 189.077V186.923ZM131.992 175.993C131.451 178.488 130.215 181.209 127.885 183.303C125.57 185.382 122.086 186.923 116.882 186.923V189.077C122.542 189.077 126.562 187.387 129.325 184.906C132.071 182.439 133.485 179.272 134.098 176.45L131.992 175.993ZM169.969 129.848C171.721 145.913 167.097 156.003 160.383 162.188C153.62 168.419 144.585 170.829 137.319 171.19L137.426 173.343C145.013 172.965 154.595 170.452 161.843 163.773C169.141 157.049 173.924 146.241 172.111 129.615L169.969 129.848ZM181.213 114.979C179.225 118.21 176.148 122.132 171.999 125.243L173.292 126.967C177.713 123.652 180.96 119.501 183.048 116.109L181.213 114.979ZM44.0884 78.0232H10.0501V80.1781H44.0884V78.0232ZM46.6024 63.9872V75.5092H48.7573V63.9872H46.6024ZM55.937 31.6055C51.0935 31.6055 47.3428 33.0129 44.6126 35.3013C41.8909 37.5826 40.2591 40.6754 39.5308 43.9256C38.8036 47.1709 38.9674 50.6079 39.8677 53.6446C40.7656 56.6731 42.4221 59.3841 44.7581 61.0826L46.0254 59.3397C44.1696 57.9904 42.7355 55.7365 41.9337 53.032C41.1343 50.3357 40.9893 47.2717 41.6335 44.3968C42.2766 41.5269 43.6968 38.8806 45.9968 36.9528C48.2884 35.0321 51.5294 33.7604 55.937 33.7604V31.6055ZM66.8072 60.9953C68.8382 59.4088 70.3385 56.783 71.188 53.8379C72.0424 50.8759 72.2723 47.4802 71.6593 44.2437C71.0456 41.0034 69.5766 37.878 66.9919 35.5359C64.3964 33.184 60.7591 31.6981 55.9577 31.6057L55.9162 33.7602C60.2732 33.844 63.3881 35.1783 65.545 37.1327C67.7128 39.097 68.9965 41.7641 69.5421 44.6447C70.0884 47.5291 69.8843 50.5827 69.1176 53.2407C68.346 55.9155 67.0383 58.0803 65.4806 59.2972L66.8072 60.9953ZM64.4851 87.7548V64.4412H62.3302V87.7548H64.4851ZM57.259 95.9035C59.968 95.5421 61.7631 94.0933 62.8748 92.4495C63.9652 90.8373 64.4074 89.0323 64.483 87.822L62.3323 87.6876C62.2769 88.5753 61.9328 89.9959 61.0899 91.2423C60.2684 92.4569 58.9835 93.4995 56.9741 93.7675L57.259 95.9035ZM5.02716 95.964C13.7269 96.091 25.6456 96.2255 35.9433 96.2547C41.0917 96.2692 45.839 96.2575 49.5778 96.2051C53.2833 96.1532 56.0768 96.0612 57.259 95.9035L56.9741 93.7675C55.9477 93.9044 53.3022 93.9978 49.5476 94.0504C45.8265 94.1025 41.093 94.1143 35.9494 94.0998C25.6633 94.0707 13.7537 93.9363 5.0586 93.8094L5.02716 95.964ZM17.2088 124.762C6.48784 116.46 3.20176 105.072 2.74932 98.1266L0.598996 98.2667C1.08034 105.656 4.55841 117.691 15.8894 126.466L17.2088 124.762ZM45.8827 170.394C39.3022 169.105 31.1655 165.758 25.4048 159.361C19.6898 153.014 16.2096 143.554 19.0725 129.769L16.9626 129.33C13.9722 143.73 17.5911 153.904 23.8035 160.803C29.9701 167.651 38.5892 171.162 45.4687 172.508L45.8827 170.394ZM85.0492 172.11C83.4076 177.989 80.6169 181.809 77.379 184.089C74.1377 186.371 70.3594 187.173 66.6319 186.857C59.0882 186.218 52.046 181.055 50.3353 174.84L48.2577 175.412C50.2608 182.689 58.2226 188.307 66.45 189.004C70.608 189.356 74.9071 188.465 78.6196 185.851C82.3355 183.234 85.3751 178.955 87.1247 172.689L85.0492 172.11ZM85.1356 145.238V171.469H87.2905V145.238H85.1356ZM71.2676 142.724H82.6216V140.569H71.2676V142.724ZM39.5267 133.447C39.8094 138.444 41.3182 142.197 43.6107 144.855C45.9022 147.513 48.908 148.998 52.0431 149.581C58.2336 150.733 65.1457 148.397 68.505 144.323L66.8424 142.952C64.0523 146.336 57.9729 148.493 52.4372 147.463C49.7092 146.955 47.1682 145.681 45.2427 143.448C43.3181 141.216 41.9395 137.945 41.6781 133.325L39.5267 133.447ZM54.6415 116.973C48.504 117.637 44.6499 120.498 42.3739 123.862C40.1273 127.183 39.4545 130.934 39.5254 133.417L41.6794 133.355C41.6192 131.248 42.2047 127.958 44.1587 125.07C46.0833 122.225 49.3722 119.71 54.8733 119.116L54.6415 116.973ZM68.7113 122.957C66.9849 120.263 64.3034 118.714 61.6956 117.868C59.0893 117.023 56.4623 116.847 54.6832 116.969L54.8316 119.119C56.3698 119.013 58.7173 119.167 61.0307 119.918C63.3424 120.668 65.5258 121.98 66.8971 124.119L68.7113 122.957ZM83.4079 124.834H71.5389V126.989H83.4079V124.834ZM85.922 21.2752V122.32H88.0769V21.2752H85.922ZM72.4512 3.07754C75.7436 3.07754 78.1734 3.82425 79.9836 4.97965C81.7948 6.13565 83.059 7.7475 83.9437 9.59523C85.735 13.3365 85.922 17.9324 85.922 21.2752H88.0769C88.0769 17.9308 87.91 12.8891 85.8873 8.66464C84.865 6.52949 83.3571 4.57643 81.143 3.16322C78.9279 1.74943 76.079 0.922657 72.4512 0.922657V3.07754ZM57.3414 14.0071C57.883 11.5124 59.1181 8.79083 61.4489 6.69729C63.7633 4.6185 67.2477 3.07754 72.4512 3.07754V0.922657C66.7915 0.922657 62.7716 2.61278 60.009 5.09414C57.2628 7.56075 55.8481 10.7284 55.2356 13.55L57.3414 14.0071ZM19.3645 60.1517C17.6128 44.0873 22.2369 33.9974 28.9503 27.8118C35.7131 21.5807 44.7481 19.1714 52.0145 18.8096L51.9073 16.6574C44.3201 17.0351 34.7389 19.5481 27.4902 26.227C20.1921 32.9514 15.4093 43.7593 17.2223 60.3853L19.3645 60.1517ZM8.12032 75.021C10.1089 71.7905 13.1857 67.8682 17.3346 64.757L16.0418 63.033C11.6205 66.3485 8.37366 70.4987 6.28525 73.8914L8.12032 75.021ZM17.2223 60.3853C17.3316 61.3869 16.8759 62.4075 16.0418 63.033L17.3346 64.757C18.7493 63.6961 19.56 61.9446 19.3645 60.1517L17.2223 60.3853ZM55.2356 13.55C54.8663 15.251 53.4577 16.5802 51.9073 16.6574L52.0145 18.8096C54.7193 18.675 56.8068 16.4696 57.3414 14.0071L55.2356 13.55ZM83.4079 126.989C85.9865 126.989 88.0769 124.899 88.0769 122.32H85.922C85.922 123.709 84.7964 124.834 83.4079 124.834V126.989ZM66.8971 124.119C67.8479 125.603 69.4654 126.989 71.5389 126.989V124.834C70.4841 124.834 69.4487 124.107 68.7113 122.957L66.8971 124.119ZM71.2676 140.569C69.3799 140.569 67.851 141.729 66.8424 142.952L68.505 144.323C69.316 143.34 70.2951 142.724 71.2676 142.724V140.569ZM15.8894 126.466C16.7627 127.142 17.1837 128.266 16.9626 129.33L19.0725 129.769C19.4645 127.881 18.7194 125.932 17.2088 124.762L15.8894 126.466ZM5.0586 93.8094C2.63664 93.774 0.42867 95.6522 0.598996 98.2667L2.74932 98.1266C2.67334 96.9603 3.66063 95.9441 5.02716 95.964L5.0586 93.8094ZM10.0501 78.0232C9.15539 78.0232 8.45992 77.5847 8.0978 77.0093C7.74534 76.4493 7.68394 75.7299 8.12032 75.021L6.28525 73.8914C5.40052 75.3286 5.50266 76.9315 6.27406 78.1571C7.0358 79.3674 8.42452 80.1781 10.0501 80.1781V78.0232ZM44.0884 80.1781C46.667 80.1781 48.7573 78.0877 48.7573 75.5092H46.6024C46.6024 76.8976 45.4769 78.0232 44.0884 78.0232V80.1781ZM172.111 129.615C172.002 128.613 172.458 127.593 173.292 126.967L171.999 125.243C170.584 126.304 169.774 128.055 169.969 129.848L172.111 129.615ZM134.098 176.45C134.467 174.749 135.876 173.42 137.426 173.343L137.319 171.19C134.614 171.325 132.527 173.53 131.992 175.993L134.098 176.45ZM105.926 63.0109C103.347 63.0109 101.257 65.1012 101.257 67.6798H103.412C103.412 66.2913 104.537 65.1658 105.926 65.1658V63.0109ZM102.209 17.3106C102.098 17.7068 102.043 18.1264 102.043 18.5311H104.198C104.198 18.3156 104.228 18.0913 104.284 17.8902L102.209 17.3106ZM87.2905 145.238C87.2905 142.659 85.2001 140.569 82.6216 140.569V142.724C84.01 142.724 85.1356 143.85 85.1356 145.238H87.2905ZM143.865 17.4917C142.566 17.2374 141.485 16.0747 141.076 14.5882L138.998 15.1601C139.563 17.2135 141.147 19.1554 143.451 19.6065L143.865 17.4917ZM87.1247 172.689C87.2354 172.293 87.2905 171.874 87.2905 171.469H85.1356C85.1356 171.684 85.1054 171.909 85.0492 172.11L87.1247 172.689ZM173.444 63.5342C172.571 62.8579 172.15 61.734 172.371 60.6696L170.261 60.2314C169.869 62.1191 170.614 64.0682 172.125 65.238L173.444 63.5342ZM122.436 65.8807C121.486 64.3973 119.868 63.0109 117.795 63.0109V65.1658C118.849 65.1658 119.885 65.8931 120.622 67.0435L122.436 65.8807ZM123.853 130.703C125.257 129.606 127.003 127.863 127.003 125.559H124.848C124.848 126.766 123.889 127.94 122.526 129.005L123.853 130.703ZM45.4687 172.508C46.7677 172.763 47.8485 173.925 48.2577 175.412L50.3353 174.84C49.7701 172.787 48.187 170.845 45.8827 170.394L45.4687 172.508ZM184.275 96.1907C186.697 96.226 188.905 94.3479 188.735 91.7333L186.584 91.8734C186.66 93.0397 185.673 94.056 184.306 94.036L184.275 96.1907ZM65.4806 59.2972C64.0761 60.3943 62.3302 62.1369 62.3302 64.4412H64.4851C64.4851 63.2344 65.4447 62.0596 66.8072 60.9953L65.4806 59.2972ZM140.576 126.013C140.576 128.057 141.933 129.661 143.308 130.66L144.575 128.917C143.45 128.099 142.731 127.06 142.731 126.013H140.576ZM118.066 49.4309C119.954 49.4309 121.483 48.2707 122.491 47.0476L120.829 45.6767C120.018 46.6603 119.038 47.2761 118.066 47.2761V49.4309ZM179.283 111.977C180.178 111.977 180.874 112.415 181.236 112.991C181.588 113.551 181.65 114.27 181.213 114.979L183.048 116.109C183.933 114.671 183.831 113.069 183.059 111.843C182.298 110.633 180.909 109.822 179.283 109.822V111.977ZM102.043 44.762C102.043 47.3406 104.133 49.4309 106.712 49.4309V47.2761C105.324 47.2761 104.198 46.1505 104.198 44.762H102.043ZM48.7573 63.9872C48.7573 61.9426 47.4004 60.3395 46.0254 59.3397L44.7581 61.0826C45.8835 61.9009 46.6024 62.9404 46.6024 63.9872H48.7573ZM145.245 109.822C142.667 109.822 140.576 111.912 140.576 114.491H142.731C142.731 113.102 143.857 111.977 145.245 111.977V109.822Z" fill="white"/>
</svg>
