<svg width="197" height="181" viewBox="0 0 197 181" fill="none" xmlns="http://www.w3.org/2000/svg">
<rect x="145.977" y="6.07744" width="33.2017" height="29.8018" rx="2.51403" fill="#CBC6FD" stroke="white" stroke-width="2.15488"/>
<g filter="url(#filter0_d_1518_7302)">
<rect x="136.797" y="20.9783" width="35.3566" height="31.9566" rx="3.59147" fill="#CBC6FD"/>
<rect x="137.875" y="22.0557" width="33.2017" height="29.8018" rx="2.51403" stroke="white" stroke-width="2.15488"/>
</g>
<path d="M148.845 87.4114L150.374 86.4693L149.224 84.6042L147.621 86.0972L148.845 87.4114ZM160.893 106.962L159.364 107.904L160.551 109.832L162.158 108.237L160.893 106.962ZM182.129 87.6652C182.132 86.6735 181.331 85.8666 180.34 85.8631L164.178 85.806C163.186 85.8024 162.38 86.6036 162.376 87.5953C162.373 88.5871 163.174 89.3939 164.165 89.3974L178.531 89.4482L178.48 103.814C178.477 104.806 179.278 105.613 180.27 105.616C181.261 105.62 182.068 104.818 182.072 103.827L182.129 87.6652ZM141.033 97.1399L150.069 88.7255L147.621 86.0972L138.585 94.5116L141.033 97.1399ZM147.316 88.3534L159.364 107.904L162.421 106.02L150.374 86.4693L147.316 88.3534ZM162.158 108.237L181.599 88.9331L179.068 86.3846L159.627 105.688L162.158 108.237Z" fill="white"/>
<ellipse cx="148.845" cy="86.669" rx="3.28574" ry="2.96978" fill="white"/>
<ellipse cx="140.083" cy="95.5784" rx="3.28574" ry="2.96978" fill="white"/>
<ellipse cx="160.893" cy="106.468" rx="3.28574" ry="2.96978" fill="white"/>
<line x1="7.03617" y1="10.5158" x2="41.525" y2="10.5158" stroke="white" stroke-width="3.27741" stroke-linecap="round"/>
<line x1="7.03592" y1="20.5319" x2="51.2524" y2="20.5319" stroke="white" stroke-width="3.27741" stroke-linecap="round"/>
<line x1="7.03592" y1="30.5483" x2="51.2524" y2="30.5483" stroke="white" stroke-width="3.27741" stroke-linecap="round"/>
<path d="M142.315 122.922C142.315 130.344 135.983 136.449 128.061 136.449C120.148 136.449 113.874 130.35 113.807 122.912C113.789 120.821 114.062 119.146 114.688 117.648C115.313 116.151 116.321 114.763 117.87 113.286C119.419 111.811 120.883 110.845 122.471 110.243C124.063 109.639 125.842 109.377 128.053 109.395C135.989 109.459 142.315 115.507 142.315 122.922Z" fill="#9F95FF" stroke="white" stroke-width="2.15488"/>
<mask id="path-12-inside-1_1518_7302" fill="white">
<path fill-rule="evenodd" clip-rule="evenodd" d="M116.087 141.517C114.541 139.661 112.175 138.123 110.132 139.412C104.172 143.174 104.172 153.041 104.172 153.041V173.498C104.172 177.641 107.531 181 111.674 181H144.447C148.59 181 151.949 177.641 151.949 173.498V153.041C151.949 153.041 151.949 153.041 151.949 153.041C151.949 153.041 151.949 143.505 146.068 139.608C144.009 138.243 141.558 139.774 139.953 141.651C137.142 144.937 132.859 147.037 128.061 147.037C123.199 147.037 118.889 144.88 116.087 141.517Z"/>
</mask>
<path fill-rule="evenodd" clip-rule="evenodd" d="M116.087 141.517C114.541 139.661 112.175 138.123 110.132 139.412C104.172 143.174 104.172 153.041 104.172 153.041V173.498C104.172 177.641 107.531 181 111.674 181H144.447C148.59 181 151.949 177.641 151.949 173.498V153.041C151.949 153.041 151.949 153.041 151.949 153.041C151.949 153.041 151.949 143.505 146.068 139.608C144.009 138.243 141.558 139.774 139.953 141.651C137.142 144.937 132.859 147.037 128.061 147.037C123.199 147.037 118.889 144.88 116.087 141.517Z" fill="#9F95FF"/>
<path d="M139.953 141.651L138.315 140.25L139.953 141.651ZM151.949 153.041H154.104V153.041L151.949 153.041ZM104.172 153.041H102.017H104.172ZM104.172 153.041C106.327 153.041 106.327 153.042 106.327 153.042C106.327 153.042 106.327 153.043 106.327 153.043C106.327 153.044 106.327 153.044 106.327 153.044C106.327 153.045 106.327 153.045 106.327 153.044C106.327 153.043 106.327 153.039 106.327 153.034C106.327 153.022 106.327 153.001 106.328 152.972C106.329 152.914 106.331 152.822 106.337 152.7C106.347 152.456 106.368 152.094 106.41 151.644C106.496 150.739 106.667 149.502 107.006 148.167C107.705 145.409 109.008 142.67 111.283 141.234L108.982 137.589C105.297 139.916 103.619 143.991 102.828 147.107C102.422 148.71 102.22 150.175 102.12 151.237C102.069 151.771 102.044 152.209 102.031 152.519C102.024 152.675 102.021 152.798 102.019 152.887C102.018 152.931 102.018 152.966 102.017 152.992C102.017 153.005 102.017 153.015 102.017 153.024C102.017 153.028 102.017 153.031 102.017 153.034C102.017 153.036 102.017 153.037 102.017 153.038C102.017 153.039 102.017 153.039 102.017 153.04C102.017 153.04 102.017 153.041 104.172 153.041ZM106.327 173.498V153.041H102.017V173.498H106.327ZM111.674 178.845C108.721 178.845 106.327 176.451 106.327 173.498H102.017C102.017 178.831 106.34 183.155 111.674 183.155V178.845ZM144.447 178.845H111.674V183.155H144.447V178.845ZM149.794 173.498C149.794 176.451 147.4 178.845 144.447 178.845V183.155C149.78 183.155 154.104 178.831 154.104 173.498H149.794ZM149.794 153.041V173.498H154.104V153.041H149.794ZM144.878 141.404C147.155 142.913 148.44 145.64 149.126 148.32C149.459 149.622 149.628 150.822 149.712 151.697C149.754 152.132 149.774 152.481 149.784 152.716C149.789 152.833 149.792 152.921 149.793 152.977C149.793 153.005 149.794 153.024 149.794 153.035C149.794 153.04 149.794 153.044 149.794 153.045C149.794 153.045 149.794 153.045 149.794 153.045C149.794 153.044 149.794 153.044 149.794 153.043C149.794 153.043 149.794 153.042 149.794 153.042C149.794 153.042 149.794 153.041 151.949 153.041C154.104 153.041 154.104 153.04 154.104 153.04C154.104 153.039 154.104 153.039 154.104 153.038C154.104 153.037 154.104 153.036 154.104 153.034C154.104 153.031 154.104 153.028 154.104 153.024C154.104 153.016 154.103 153.005 154.103 152.992C154.103 152.967 154.103 152.932 154.102 152.889C154.1 152.803 154.097 152.683 154.09 152.532C154.077 152.23 154.052 151.803 154.002 151.284C153.902 150.249 153.703 148.821 153.301 147.252C152.517 144.19 150.862 140.2 147.258 137.812L144.878 141.404ZM138.315 140.25C135.91 143.063 132.223 144.882 128.061 144.882V149.191C133.494 149.191 138.373 146.812 141.59 143.052L138.315 140.25ZM128.061 144.882C123.846 144.882 120.14 143.015 117.743 140.137L114.431 142.896C117.638 146.745 122.552 149.191 128.061 149.191V144.882ZM147.258 137.812C145.476 136.631 143.555 136.781 142.011 137.425C140.527 138.044 139.253 139.153 138.315 140.25L141.59 143.052C142.258 142.271 143.012 141.677 143.67 141.403C144.268 141.153 144.601 141.221 144.878 141.404L147.258 137.812ZM154.104 153.041C154.104 153.041 154.104 153.041 154.104 153.041C154.104 153.041 154.104 153.041 151.949 153.041C149.794 153.041 149.794 153.041 149.794 153.041C149.794 153.041 149.794 153.041 149.794 153.041H154.104ZM111.283 141.234C111.543 141.069 111.858 141.008 112.432 141.259C113.065 141.536 113.789 142.125 114.431 142.896L117.743 140.137C116.839 139.053 115.607 137.945 114.16 137.311C112.654 136.652 110.764 136.465 108.982 137.589L111.283 141.234ZM104.172 153.041C102.017 153.041 102.017 153.041 102.017 153.041C104.172 153.041 106.327 153.041 106.327 153.041H102.017C102.017 153.041 104.172 153.041 106.327 153.041C106.327 153.041 106.327 153.041 104.172 153.041Z" fill="white" mask="url(#path-12-inside-1_1518_7302)"/>
<path d="M122.894 43.3401C122.894 48.8584 118.196 53.4153 112.295 53.4153C106.403 53.4153 101.746 48.8647 101.696 43.3305C101.682 41.7569 101.887 40.5136 102.347 39.4101C102.807 38.3075 103.55 37.2751 104.712 36.1654C105.873 35.057 106.959 34.3406 108.13 33.8954C109.303 33.4489 110.624 33.2513 112.286 33.2649C118.202 33.3132 122.894 37.8294 122.894 43.3401Z" fill="#9F95FF" stroke="white" stroke-width="2.15488"/>
<mask id="path-15-inside-2_1518_7302" fill="white">
<path fill-rule="evenodd" clip-rule="evenodd" d="M103.18 57.5448C101.999 56.1253 100.19 54.9484 98.631 55.9383C94.1011 58.8156 94.1011 66.3402 94.1011 66.3402C94.1011 66.3402 94.1011 66.3402 94.1011 66.3402V81.9618C94.1011 85.1257 96.6659 87.6905 99.8298 87.6905H124.759C127.923 87.6905 130.487 85.1257 130.487 81.9618V66.3402C130.487 66.3402 130.487 66.3402 130.487 66.3402C130.487 66.3401 130.487 59.069 126.019 56.0889C124.448 55.041 122.573 56.2116 121.347 57.6476C119.206 60.1542 115.946 61.7548 112.295 61.7548C108.594 61.7548 105.314 60.1104 103.18 57.5448Z"/>
</mask>
<path fill-rule="evenodd" clip-rule="evenodd" d="M103.18 57.5448C101.999 56.1253 100.19 54.9484 98.631 55.9383C94.1011 58.8156 94.1011 66.3402 94.1011 66.3402C94.1011 66.3402 94.1011 66.3402 94.1011 66.3402V81.9618C94.1011 85.1257 96.6659 87.6905 99.8298 87.6905H124.759C127.923 87.6905 130.487 85.1257 130.487 81.9618V66.3402C130.487 66.3402 130.487 66.3402 130.487 66.3402C130.487 66.3401 130.487 59.069 126.019 56.0889C124.448 55.041 122.573 56.2116 121.347 57.6476C119.206 60.1542 115.946 61.7548 112.295 61.7548C108.594 61.7548 105.314 60.1104 103.18 57.5448Z" fill="#9F95FF"/>
<path d="M121.347 57.6476L119.708 56.2481L121.347 57.6476ZM130.487 66.3402H128.332H130.487ZM98.631 55.9383L97.4756 54.1194L98.631 55.9383ZM94.1011 66.3402H91.9462H94.1011ZM96.256 66.3402C96.256 66.4219 96.2525 64.7409 96.7565 62.7461C97.278 60.6826 98.2241 58.7496 99.7863 57.7573L97.4756 54.1194C94.508 56.0043 93.1891 59.2722 92.5781 61.6903C91.9497 64.1771 91.9462 66.2584 91.9462 66.3402H96.256ZM96.256 81.9618V66.3402H91.9462V81.9618H96.256ZM99.8298 85.5356C97.856 85.5356 96.256 83.9356 96.256 81.9618H91.9462C91.9462 86.3158 95.4758 89.8454 99.8298 89.8454V85.5356ZM124.759 85.5356H99.8298V89.8454H124.759V85.5356ZM128.332 81.9618C128.332 83.9356 126.732 85.5356 124.759 85.5356V89.8454C129.113 89.8454 132.642 86.3158 132.642 81.9618H128.332ZM128.332 66.3402V81.9618H132.642V66.3402H128.332ZM124.823 57.8817C126.397 58.9313 127.33 60.8632 127.841 62.8646C128.336 64.8083 128.332 66.4251 128.332 66.3402H132.642C132.642 66.2552 132.638 64.2364 132.017 61.7996C131.41 59.4203 130.109 56.2266 127.214 54.2961L124.823 57.8817ZM119.708 56.2481C117.972 58.2806 115.309 59.6 112.295 59.6V63.9097C116.583 63.9097 120.439 62.0279 122.985 59.0472L119.708 56.2481ZM112.295 59.6C109.243 59.6 106.567 58.2469 104.837 56.1667L101.523 58.9229C104.061 61.9738 107.945 63.9097 112.295 63.9097V59.6ZM127.214 54.2961C125.675 53.2698 124.017 53.4089 122.724 53.9479C121.493 54.4614 120.457 55.3716 119.708 56.2481L122.985 59.0472C123.463 58.4876 123.978 58.0945 124.383 57.9257C124.57 57.8475 124.679 57.8404 124.72 57.8419C124.743 57.8427 124.767 57.8439 124.823 57.8817L127.214 54.2961ZM132.642 66.3402C132.642 66.3402 132.642 66.3402 132.642 66.3402H128.332C128.332 66.3402 128.332 66.3402 128.332 66.3402H132.642ZM99.7863 57.7573C99.8358 57.7259 99.8526 57.727 99.8686 57.7267C99.9028 57.7261 100.004 57.7338 100.183 57.8121C100.57 57.9815 101.063 58.3701 101.523 58.9229L104.837 56.1667C104.115 55.3 103.114 54.3904 101.911 53.864C100.649 53.3114 99.0162 53.1408 97.4756 54.1194L99.7863 57.7573ZM91.9462 66.3402C91.9462 66.3402 91.9462 66.3402 91.9462 66.3402C91.9462 66.3402 91.9462 66.3402 91.9462 66.3402C91.9462 66.3402 91.9462 66.3402 91.9462 66.3402C91.9462 66.3402 91.9462 66.3402 91.9462 66.3402V66.3402C91.9462 66.3402 91.9462 66.3402 91.9462 66.3402C91.9462 66.3402 91.9462 66.3402 91.9462 66.3402C94.1011 68.495 96.256 66.3402 96.256 66.3402C96.256 66.3402 96.256 66.3402 96.256 66.3402V66.3402C96.256 66.3402 96.256 66.3402 96.256 66.3402V66.3402V66.3402C96.256 66.3402 96.256 66.3402 96.256 66.3402C96.256 66.3401 94.1011 64.1853 91.9462 66.3401C91.9462 66.3401 91.9462 66.3402 91.9462 66.3402C91.9462 66.3402 91.9462 66.3402 91.9462 66.3402C91.9462 66.3402 91.9462 66.3402 91.9462 66.3402C91.9462 66.3402 91.9462 66.3402 91.9462 66.3402H96.256V66.3402C96.256 66.3402 96.256 66.3402 96.256 66.3402V66.3402C96.256 66.3402 96.256 66.3402 96.256 66.3402C94.1011 68.495 91.9462 66.3402 91.9462 66.3402C91.9462 66.3402 91.9462 66.3402 91.9462 66.3402V66.3402C91.9462 66.3402 91.9462 66.3402 91.9462 66.3402V66.3402V66.3402C91.9462 66.3402 91.9462 66.3402 91.9462 66.3402C91.9462 66.3402 94.1011 64.1853 96.256 66.3401C96.256 66.3401 96.256 66.3402 96.256 66.3402C96.256 66.3402 96.256 66.3402 96.256 66.3402C96.256 66.3402 96.256 66.3402 96.256 66.3402C96.256 66.3402 96.256 66.3402 96.256 66.3402H91.9462Z" fill="white" mask="url(#path-15-inside-2_1518_7302)"/>
<mask id="path-17-inside-3_1518_7302" fill="white">
<path fill-rule="evenodd" clip-rule="evenodd" d="M29.8955 99.295C28.0212 97.0053 25.1922 95.0662 22.5764 96.4495C14.1799 100.89 14.1799 114.228 14.1799 114.228V140.381C14.1799 145.617 18.4244 149.862 23.6602 149.862H66.315C71.5508 149.862 75.7953 145.617 75.7953 140.381V114.228C75.7953 114.228 75.7953 104.15 70.0682 98.5977C67.6264 96.2306 64.0159 98.0064 61.6524 100.452C57.9092 104.324 52.4049 106.771 46.2685 106.771C39.5416 106.771 33.6087 103.831 29.8955 99.295Z"/>
</mask>
<path fill-rule="evenodd" clip-rule="evenodd" d="M29.8955 99.295C28.0212 97.0053 25.1922 95.0662 22.5764 96.4495C14.1799 100.89 14.1799 114.228 14.1799 114.228V140.381C14.1799 145.617 18.4244 149.862 23.6602 149.862H66.315C71.5508 149.862 75.7953 145.617 75.7953 140.381V114.228C75.7953 114.228 75.7953 104.15 70.0682 98.5977C67.6264 96.2306 64.0159 98.0064 61.6524 100.452C57.9092 104.324 52.4049 106.771 46.2685 106.771C39.5416 106.771 33.6087 103.831 29.8955 99.295Z" fill="#9F95FF"/>
<path d="M75.7953 114.228H77.9502V114.228L75.7953 114.228ZM14.1799 114.228H16.3348H14.1799ZM14.1799 114.228C16.3348 114.228 16.3348 114.229 16.3348 114.229C16.3348 114.23 16.3348 114.23 16.3348 114.23C16.3348 114.231 16.3348 114.231 16.3348 114.231C16.3348 114.231 16.3348 114.231 16.3348 114.229C16.3348 114.227 16.3349 114.221 16.335 114.212C16.3351 114.194 16.3355 114.164 16.3364 114.122C16.3381 114.039 16.3417 113.91 16.3491 113.741C16.364 113.402 16.3942 112.904 16.4554 112.288C16.5784 111.051 16.8239 109.367 17.31 107.565C18.3067 103.872 20.1837 100.152 23.5838 98.3544L21.569 94.5446C16.5726 97.1869 14.2514 102.357 13.149 106.443C12.5856 108.531 12.3063 110.459 12.1668 111.862C12.0968 112.566 12.0614 113.144 12.0435 113.552C12.0346 113.756 12.0299 113.918 12.0276 114.033C12.0264 114.09 12.0257 114.135 12.0254 114.168C12.0253 114.185 12.0252 114.198 12.0251 114.208C12.0251 114.213 12.0251 114.217 12.0251 114.221C12.0251 114.222 12.0251 114.224 12.0251 114.225C12.0251 114.226 12.0251 114.227 12.0251 114.227C12.025 114.228 12.025 114.228 14.1799 114.228ZM16.3348 140.381V114.228H12.025V140.381H16.3348ZM23.6602 147.707C19.6145 147.707 16.3348 144.427 16.3348 140.381H12.025C12.025 146.807 17.2343 152.017 23.6602 152.017V147.707ZM66.315 147.707H23.6602V152.017H66.315V147.707ZM73.6404 140.381C73.6404 144.427 70.3607 147.707 66.315 147.707V152.017C72.741 152.017 77.9502 146.807 77.9502 140.381H73.6404ZM73.6404 114.228V140.381H77.9502V114.228H73.6404ZM68.5683 100.145C70.9912 102.494 72.298 105.92 72.9761 108.964C73.3088 110.457 73.4758 111.793 73.559 112.753C73.6005 113.231 73.6209 113.613 73.6309 113.868C73.6359 113.996 73.6383 114.093 73.6394 114.154C73.64 114.184 73.6402 114.206 73.6403 114.219C73.6404 114.225 73.6404 114.229 73.6404 114.231C73.6404 114.231 73.6404 114.232 73.6404 114.231C73.6404 114.231 73.6404 114.231 73.6404 114.23C73.6404 114.23 73.6404 114.23 73.6404 114.229C73.6404 114.229 73.6404 114.228 75.7953 114.228C77.9502 114.228 77.9502 114.228 77.9502 114.227C77.9502 114.227 77.9502 114.226 77.9502 114.225C77.9502 114.224 77.9502 114.223 77.9502 114.222C77.9502 114.219 77.9502 114.215 77.9501 114.211C77.9501 114.203 77.95 114.193 77.9499 114.18C77.9497 114.154 77.9492 114.118 77.9484 114.074C77.9468 113.985 77.9436 113.859 77.9374 113.7C77.925 113.383 77.9006 112.934 77.8526 112.381C77.7569 111.277 77.5659 109.746 77.1828 108.026C76.429 104.643 74.8723 100.254 71.5681 97.0505L68.5683 100.145ZM60.1029 98.9541C56.7741 102.398 51.8328 104.616 46.2685 104.616V108.926C52.977 108.926 59.0442 106.251 63.2018 101.949L60.1029 98.9541ZM46.2685 104.616C40.17 104.616 34.8558 101.952 31.563 97.93L28.2281 100.66C32.3616 105.709 38.9131 108.926 46.2685 108.926V104.616ZM71.5681 97.0505C69.6455 95.1867 67.2525 95.0401 65.2083 95.6571C63.2457 96.2494 61.4493 97.5612 60.1029 98.9541L63.2018 101.949C64.219 100.897 65.4095 100.098 66.4536 99.783C67.4159 99.4925 68.0491 99.6416 68.5683 100.145L71.5681 97.0505ZM77.9502 114.228C77.9502 114.228 77.9502 114.228 75.7953 114.228C73.6404 114.228 73.6404 114.228 73.6404 114.228H77.9502ZM23.5838 98.3544C24.138 98.0613 24.7626 98.0515 25.595 98.444C26.4773 98.8599 27.4133 99.6646 28.2281 100.66L31.563 97.93C30.5034 96.6357 29.0878 95.3259 27.433 94.5458C25.7284 93.7421 23.6306 93.4543 21.569 94.5446L23.5838 98.3544ZM14.1799 114.228C12.025 114.228 12.025 114.228 12.025 114.228C14.1799 114.228 16.3348 114.228 16.3348 114.228H12.025C12.025 114.228 14.1799 114.228 16.3348 114.228C16.3348 114.228 16.3348 114.228 14.1799 114.228Z" fill="white" mask="url(#path-17-inside-3_1518_7302)"/>
<mask id="path-19-inside-4_1518_7302" fill="white">
<path fill-rule="evenodd" clip-rule="evenodd" d="M25.4814 79.0967C26.9157 88.107 35.0562 95.0309 44.988 95.0309C55.8846 95.0309 64.7181 86.6968 64.7181 76.4161C64.7181 66.4677 56.446 58.4244 46.0377 57.8352L46.0376 74.9148C46.0376 77.1951 45.1875 79.0967 42.829 79.0967L25.4814 79.0967Z"/>
</mask>
<path fill-rule="evenodd" clip-rule="evenodd" d="M25.4814 79.0967C26.9157 88.107 35.0562 95.0309 44.988 95.0309C55.8846 95.0309 64.7181 86.6968 64.7181 76.4161C64.7181 66.4677 56.446 58.4244 46.0377 57.8352L46.0376 74.9148C46.0376 77.1951 45.1875 79.0967 42.829 79.0967L25.4814 79.0967Z" fill="#9F95FF"/>
<path d="M25.4814 79.0967L25.4814 76.9418H22.9564L23.3534 79.4355L25.4814 79.0967ZM46.0377 57.8352L46.1595 55.6838L43.8829 55.5549L43.8829 57.8352L46.0377 57.8352ZM46.0376 74.9148L48.1925 74.9148V74.9148L46.0376 74.9148ZM42.829 79.0967V81.2516V79.0967ZM44.988 92.8761C36.056 92.8761 28.8681 86.6644 27.6095 78.758L23.3534 79.4355C24.9633 89.5496 34.0563 97.1858 44.988 97.1858V92.8761ZM62.5633 76.4161C62.5633 85.3903 54.8144 92.8761 44.988 92.8761V97.1858C56.9549 97.1858 66.873 88.0033 66.873 76.4161H62.5633ZM45.916 59.9866C55.3215 60.519 62.5633 67.744 62.5633 76.4161H66.873C66.873 65.1914 57.5706 56.3297 46.1595 55.6838L45.916 59.9866ZM43.8829 57.8352L43.8828 74.9148L48.1925 74.9148L48.1926 57.8352L43.8829 57.8352ZM43.8828 74.9148C43.8828 75.8441 43.7001 76.4028 43.5252 76.6649C43.4531 76.7731 43.3898 76.8217 43.3312 76.8521C43.2694 76.8842 43.1239 76.9418 42.829 76.9418V81.2516C44.69 81.2516 46.1823 80.4478 47.1103 79.0568C47.9501 77.798 48.1925 76.2658 48.1925 74.9148L43.8828 74.9148ZM42.829 76.9418L25.4814 76.9418L25.4814 81.2516L42.829 81.2516V76.9418Z" fill="white" mask="url(#path-19-inside-4_1518_7302)"/>
<path d="M33.1855 45.8339C34.7914 45.6842 36.255 47.014 36.255 48.7209L36.2549 67.1837C36.2549 68.2223 36.057 69.0439 35.7016 69.5766C35.3844 70.052 34.9096 70.3569 34.0896 70.3569L10.9501 70.3569C9.1571 70.3569 7.806 68.93 8.0132 67.4417C9.64499 55.7207 18.5452 47.1989 33.1855 45.8339Z" fill="white" stroke="white" stroke-width="2.15488"/>
<defs>
<filter id="filter0_d_1518_7302" x="123.868" y="0.86604" width="72.708" height="69.3078" filterUnits="userSpaceOnUse" color-interpolation-filters="sRGB">
<feFlood flood-opacity="0" result="BackgroundImageFix"/>
<feColorMatrix in="SourceAlpha" type="matrix" values="0 0 0 0 0 0 0 0 0 0 0 0 0 0 0 0 0 0 127 0" result="hardAlpha"/>
<feOffset dx="5.74635" dy="-1.43659"/>
<feGaussianBlur stdDeviation="9.33782"/>
<feComposite in2="hardAlpha" operator="out"/>
<feColorMatrix type="matrix" values="0 0 0 0 0.0156863 0 0 0 0 0.0509804 0 0 0 0 0.0705882 0 0 0 1 0"/>
<feBlend mode="normal" in2="BackgroundImageFix" result="effect1_dropShadow_1518_7302"/>
<feBlend mode="normal" in="SourceGraphic" in2="effect1_dropShadow_1518_7302" result="shape"/>
</filter>
</defs>
</svg>
