<svg width="32" height="31" viewBox="0 0 32 31" fill="none" xmlns="http://www.w3.org/2000/svg">
<g filter="url(#filter0_d_1551_4432)">
<path d="M18.1376 20.1953C17.6724 20.3834 17.2072 20.5244 16.649 20.5714C13.2531 20.9476 10.4155 18.2676 10.4155 14.9295C10.4155 14.3653 10.5085 13.8011 10.648 13.2369C10.7411 13.0018 11.0202 12.9548 11.1598 13.0958L14.3231 16.2929C14.5557 16.528 14.9278 16.528 15.2069 16.2929L17.4398 14.0362C17.6724 13.8011 17.6724 13.425 17.4398 13.1429L14.2765 9.94575C14.137 9.75769 14.1835 9.47559 14.4161 9.42857C14.9278 9.28752 15.486 9.19349 16.0443 9.19349C19.3471 9.19349 21.9987 12.0615 21.6266 15.4937C21.58 16.0108 21.4405 16.481 21.2544 16.9982L27.1158 22.9222C28.9301 20.7595 30 17.9855 30 15.0235C29.9535 7.73599 23.7199 2 15.9977 2C8.22905 2 2.04201 7.783 2.04201 14.8825C2.04201 17.1392 2.69328 19.255 3.7167 21.1356C3.90278 21.4177 3.94929 21.7939 3.85626 22.123L2.04201 27.1537C1.85593 27.6239 2.32113 28.047 2.78632 27.906L7.8569 25.9783C8.13601 25.8373 8.50817 25.9313 8.8338 26.1193C10.9272 27.2948 13.4392 28 16.1373 28C18.9285 27.953 21.5335 27.1537 23.7199 25.8373L18.1376 20.1953Z" fill="white"/>
</g>
<defs>
<filter id="filter0_d_1551_4432" x="-1" y="0" width="34" height="32" filterUnits="userSpaceOnUse" color-interpolation-filters="sRGB">
<feFlood flood-opacity="0" result="BackgroundImageFix"/>
<feColorMatrix in="SourceAlpha" type="matrix" values="0 0 0 0 0 0 0 0 0 0 0 0 0 0 0 0 0 0 127 0" result="hardAlpha"/>
<feOffset dy="1"/>
<feGaussianBlur stdDeviation="1.5"/>
<feComposite in2="hardAlpha" operator="out"/>
<feColorMatrix type="matrix" values="0 0 0 0 0.122417 0 0 0 0 0.0270833 0 0 0 0 0.325 0 0 0 0.55 0"/>
<feBlend mode="normal" in2="BackgroundImageFix" result="effect1_dropShadow_1551_4432"/>
<feBlend mode="normal" in="SourceGraphic" in2="effect1_dropShadow_1551_4432" result="shape"/>
</filter>
</defs>
</svg>
