<svg width="32" height="32" viewBox="0 0 32 32" fill="none" xmlns="http://www.w3.org/2000/svg">
<g clip-path="url(#clip0_1551_4443)">
<path d="M25.1001 3C25.1001 6.01053 19.5101 11.2105 13.4001 11.2105V19.4211C19.5101 19.4211 25.1001 24.3474 25.1001 27.6316H27.7001V17.6421C28.4801 17.2316 29.0001 16.2737 29.0001 15.3158C29.0001 14.3579 28.4801 13.4 27.7001 12.9895V3H25.1001ZM6.90012 11.2105C5.86012 11.2105 4.95012 11.8947 4.56012 12.8526C3.65012 13.2632 3.00012 14.2211 3.00012 15.3158C3.00012 16.4105 3.65012 17.3684 4.56012 17.7789C4.95012 18.7368 5.86012 19.4211 6.90012 19.4211H7.16012L10.0201 29L14.5701 27.4947L12.1001 19.4211V11.2105H6.90012Z" fill="white"/>
</g>
<defs>
<clipPath id="clip0_1551_4443">
<rect width="32" height="32" fill="white"/>
</clipPath>
</defs>
</svg>
