<svg width="25" height="26" viewBox="0 0 25 26" fill="none" xmlns="http://www.w3.org/2000/svg">
<path d="M14.8477 12.9986L22.0075 5.85447C22.321 5.54089 22.4972 5.11558 22.4972 4.67211C22.4972 4.22864 22.321 3.80333 22.0075 3.48975C21.6939 3.17617 21.2687 3 20.8253 3C20.3819 3 19.9566 3.17617 19.6431 3.48975L12.5 10.6505L5.3569 3.48975C5.04337 3.17617 4.61812 3 4.17471 3C3.7313 3 3.30606 3.17617 2.99252 3.48975C2.67898 3.80333 2.50284 4.22864 2.50284 4.67211C2.50284 5.11558 2.67898 5.54089 2.99252 5.85447L10.1523 12.9986L2.99252 20.1427C2.83646 20.2975 2.71259 20.4817 2.62805 20.6846C2.54352 20.8875 2.5 21.1052 2.5 21.325C2.5 21.5449 2.54352 21.7626 2.62805 21.9655C2.71259 22.1684 2.83646 22.3526 2.99252 22.5074C3.14731 22.6635 3.33147 22.7874 3.53437 22.8719C3.73727 22.9565 3.9549 23 4.17471 23C4.39452 23 4.61215 22.9565 4.81505 22.8719C5.01796 22.7874 5.20211 22.6635 5.3569 22.5074L12.5 15.3466L19.6431 22.5074C19.7979 22.6635 19.982 22.7874 20.1849 22.8719C20.3878 22.9565 20.6055 23 20.8253 23C21.0451 23 21.2627 22.9565 21.4656 22.8719C21.6685 22.7874 21.8527 22.6635 22.0075 22.5074C22.1635 22.3526 22.2874 22.1684 22.3719 21.9655C22.4565 21.7626 22.5 21.5449 22.5 21.325C22.5 21.1052 22.4565 20.8875 22.3719 20.6846C22.2874 20.4817 22.1635 20.2975 22.0075 20.1427L14.8477 12.9986Z" fill="white"/>
</svg>
