<svg width="60" height="60" viewBox="0 0 60 60" fill="none" xmlns="http://www.w3.org/2000/svg">
<path opacity="0.2" d="M51.5 29.5006C51.5 33.8518 50.2097 38.1053 47.7923 41.7232C45.3749 45.341 41.939 48.1608 37.919 49.826C33.8991 51.4911 29.4756 51.9268 25.208 51.0779C20.9404 50.229 17.0204 48.1337 13.9437 45.057C10.8669 41.9802 8.77161 38.0602 7.92273 33.7926C7.07386 29.525 7.50953 25.1015 9.17466 21.0816C10.8398 17.0616 13.6596 13.6257 17.2775 11.2083C20.8953 8.79089 25.1488 7.50061 29.5 7.50061C32.3891 7.5006 35.2499 8.06964 37.9191 9.17525C40.5882 10.2808 43.0135 11.9014 45.0564 13.9442C47.0993 15.9871 48.7198 18.4124 49.8254 21.0816C50.931 23.7507 51.5 26.6115 51.5 29.5006Z" fill="#9F95FF"/>
<path d="M30 8.00012C25.6488 8.00012 21.3953 9.2904 17.7775 11.7078C14.1596 14.1252 11.3398 17.5611 9.67466 21.5811C8.00953 25.6011 7.57386 30.0245 8.42273 34.2921C9.27161 38.5597 11.3669 42.4797 14.4437 45.5565C17.5204 48.6332 21.4404 50.7285 25.708 51.5774C29.9756 52.4263 34.3991 51.9906 38.419 50.3255C42.439 48.6603 45.8749 45.8405 48.2923 42.2227C50.7097 38.6048 52 34.3513 52 30.0001C51.9934 24.1674 49.6734 18.5754 45.5491 14.4511C41.4247 10.3267 35.8327 8.00672 30 8.00012ZM30 48.6155C26.3182 48.6155 22.7191 47.5237 19.6579 45.4782C16.5966 43.4328 14.2106 40.5254 12.8016 37.1239C11.3927 33.7224 11.024 29.9795 11.7423 26.3684C12.4606 22.7574 14.2335 19.4405 16.8369 16.8371C19.4404 14.2336 22.7573 12.4607 26.3683 11.7424C29.9794 11.0241 33.7223 11.3928 37.1238 12.8017C40.5253 14.2107 43.4326 16.5967 45.4781 19.658C47.5236 22.7192 48.6154 26.3183 48.6154 30.0001C48.6098 34.9355 46.6468 39.6672 43.1569 43.157C39.6671 46.6469 34.9354 48.6099 30 48.6155ZM19.8462 25.7694C19.8462 25.2673 19.995 24.7765 20.274 24.3591C20.5529 23.9416 20.9494 23.6162 21.4132 23.4241C21.877 23.232 22.3874 23.1817 22.8799 23.2797C23.3723 23.3776 23.8246 23.6194 24.1796 23.9744C24.5346 24.3294 24.7764 24.7817 24.8743 25.2741C24.9723 25.7665 24.922 26.2769 24.7299 26.7408C24.5377 27.2046 24.2124 27.6011 23.7949 27.88C23.3775 28.1589 22.8867 28.3078 22.3846 28.3078C21.7114 28.3078 21.0657 28.0404 20.5897 27.5643C20.1136 27.0883 19.8462 26.4426 19.8462 25.7694ZM35.0769 25.7694C35.0769 25.2673 35.2258 24.7765 35.5047 24.3591C35.7837 23.9416 36.1801 23.6162 36.644 23.4241C37.1078 23.232 37.6182 23.1817 38.1106 23.2797C38.603 23.3776 39.0553 23.6194 39.4104 23.9744C39.7654 24.3294 40.0071 24.7817 40.1051 25.2741C40.203 25.7665 40.1527 26.2769 39.9606 26.7408C39.7685 27.2046 39.4431 27.6011 39.0257 27.88C38.6082 28.1589 38.1174 28.3078 37.6154 28.3078C36.9421 28.3078 36.2965 28.0404 35.8204 27.5643C35.3444 27.0883 35.0769 26.4426 35.0769 25.7694ZM40.2607 35.9238C39.2205 37.7245 37.7247 39.2198 35.9236 40.2594C34.1225 41.299 32.0796 41.8463 30 41.8463C27.9205 41.8463 25.8775 41.299 24.0764 40.2594C22.2754 39.2199 20.7796 37.7246 19.7394 35.9239C19.6281 35.7315 19.5558 35.5191 19.5266 35.2988C19.4975 35.0785 19.512 34.8546 19.5693 34.6399C19.6267 34.4252 19.7258 34.2238 19.8609 34.0474C19.9961 33.871 20.1647 33.7229 20.357 33.6117C20.5494 33.5004 20.7618 33.4281 20.9821 33.3989C21.2025 33.3698 21.4264 33.3843 21.6411 33.4416C21.8558 33.499 22.0571 33.5981 22.2335 33.7332C22.41 33.8684 22.558 34.037 22.6693 34.2293C23.4123 35.5161 24.4809 36.5847 25.7677 37.3276C27.0545 38.0706 28.5142 38.4617 30.0001 38.4617C31.486 38.4616 32.9457 38.0705 34.2326 37.3276C35.5194 36.5846 36.588 35.516 37.3309 34.2292C37.4422 34.0369 37.5903 33.8683 37.7667 33.7332C37.9431 33.598 38.1444 33.4989 38.3591 33.4416C38.5738 33.3842 38.7977 33.3697 39.018 33.3989C39.2383 33.4281 39.4507 33.5004 39.6431 33.6117C39.8354 33.7229 40.004 33.871 40.1392 34.0474C40.2743 34.2238 40.3734 34.4251 40.4307 34.6398C40.4881 34.8545 40.5026 35.0784 40.4734 35.2987C40.4442 35.519 40.3719 35.7314 40.2607 35.9238Z" fill="#9F95FF"/>
</svg>
