<svg width="35" height="35" viewBox="0 0 35 35" fill="none" xmlns="http://www.w3.org/2000/svg">
<g clip-path="url(#clip0_3666_2454)">
<path d="M17.5088 0.265137C10.3123 0.265137 8.20758 0.272561 7.79847 0.306499C6.32162 0.42926 5.40263 0.661791 4.40145 1.16026C3.62988 1.54339 3.02138 1.98751 2.42083 2.61007C1.32711 3.74541 0.664253 5.14218 0.424299 6.80251C0.307636 7.60855 0.273697 7.77294 0.266803 11.8901C0.264152 13.2625 0.266803 15.0686 0.266803 17.4912C0.266803 24.6819 0.274758 26.7845 0.309226 27.1928C0.428541 28.6299 0.653913 29.5341 1.13117 30.523C2.04326 32.4162 3.78526 33.8373 5.83747 34.3676C6.54805 34.5506 7.33288 34.6513 8.34042 34.699C8.7673 34.7176 13.1183 34.7309 17.472 34.7309C21.8256 34.7309 26.1793 34.7256 26.5955 34.7044C27.7622 34.6495 28.4396 34.5585 29.1887 34.365C31.2541 33.832 32.9643 32.4321 33.8949 30.5124C34.3629 29.5473 34.6002 28.6087 34.7076 27.2467C34.7309 26.9497 34.7408 22.215 34.7408 17.4867C34.7408 12.7576 34.7302 8.03172 34.7068 7.73476C34.5981 6.35071 34.3608 5.42006 33.8777 4.43637C33.4813 3.63113 33.0412 3.02979 32.4022 2.41492C31.2618 1.32571 29.8672 0.662852 28.2052 0.423162C27.4 0.306764 27.2396 0.272296 23.1193 0.265137H17.5088Z" fill="url(#paint0_radial_3666_2454)"/>
<path d="M17.5088 0.265137C10.3123 0.265137 8.20758 0.272561 7.79847 0.306499C6.32162 0.42926 5.40263 0.661791 4.40145 1.16026C3.62988 1.54339 3.02138 1.98751 2.42083 2.61007C1.32711 3.74541 0.664253 5.14218 0.424299 6.80251C0.307636 7.60855 0.273697 7.77294 0.266803 11.8901C0.264152 13.2625 0.266803 15.0686 0.266803 17.4912C0.266803 24.6819 0.274758 26.7845 0.309226 27.1928C0.428541 28.6299 0.653913 29.5341 1.13117 30.523C2.04326 32.4162 3.78526 33.8373 5.83747 34.3676C6.54805 34.5506 7.33288 34.6513 8.34042 34.699C8.7673 34.7176 13.1183 34.7309 17.472 34.7309C21.8256 34.7309 26.1793 34.7256 26.5955 34.7044C27.7622 34.6495 28.4396 34.5585 29.1887 34.365C31.2541 33.832 32.9643 32.4321 33.8949 30.5124C34.3629 29.5473 34.6002 28.6087 34.7076 27.2467C34.7309 26.9497 34.7408 22.215 34.7408 17.4867C34.7408 12.7576 34.7302 8.03172 34.7068 7.73476C34.5981 6.35071 34.3608 5.42006 33.8777 4.43637C33.4813 3.63113 33.0412 3.02979 32.4022 2.41492C31.2618 1.32571 29.8672 0.662852 28.2052 0.423162C27.4 0.306764 27.2396 0.272296 23.1193 0.265137H17.5088Z" fill="url(#paint1_radial_3666_2454)"/>
<path d="M17.5014 4.77258C14.045 4.77258 13.6112 4.7877 12.2537 4.84947C10.8988 4.91152 9.97396 5.12602 9.16474 5.44074C8.32769 5.76581 7.61763 6.20065 6.91023 6.90831C6.2023 7.61572 5.76746 8.32577 5.44133 9.16256C5.12581 9.97205 4.91105 10.8971 4.85006 12.2515C4.78935 13.609 4.77344 14.0431 4.77344 17.4995C4.77344 20.9559 4.78882 21.3883 4.85033 22.7459C4.91264 24.1007 5.12714 25.0256 5.4416 25.8348C5.76693 26.6718 6.20177 27.3819 6.90943 28.0893C7.61657 28.7972 8.32663 29.2331 9.16315 29.5582C9.9729 29.8729 10.898 30.0874 12.2526 30.1495C13.6101 30.2112 14.0436 30.2264 17.4998 30.2264C20.9565 30.2264 21.3889 30.2112 22.7465 30.1495C24.1013 30.0874 25.0272 29.8729 25.837 29.5582C26.6738 29.2331 27.3828 28.7972 28.0899 28.0893C28.7978 27.3819 29.2327 26.6718 29.5588 25.835C29.8717 25.0256 30.0864 24.1005 30.1501 22.7461C30.211 21.3886 30.2269 20.9559 30.2269 17.4995C30.2269 14.0431 30.211 13.6093 30.1501 12.2517C30.0864 10.8969 29.8717 9.97205 29.5588 9.16283C29.2327 8.32577 28.7978 7.61572 28.0899 6.90831C27.382 6.20038 26.674 5.76555 25.8362 5.44074C25.0248 5.12602 24.0995 4.91152 22.7446 4.84947C21.3871 4.7877 20.9549 4.77258 17.4974 4.77258H17.5014ZM16.3597 7.06607C16.6985 7.06554 17.0766 7.06607 17.5014 7.06607C20.8995 7.06607 21.3022 7.07827 22.6441 7.13925C23.885 7.19599 24.5584 7.40334 25.0071 7.57754C25.601 7.80821 26.0244 8.08396 26.4696 8.5294C26.915 8.97484 27.1908 9.39907 27.422 9.99299C27.5962 10.4411 27.8038 11.1145 27.8603 12.3554C27.9213 13.697 27.9345 14.1001 27.9345 17.4966C27.9345 20.893 27.9213 21.2961 27.8603 22.6377C27.8035 23.8786 27.5962 24.552 27.422 25.0001C27.1913 25.594 26.915 26.0169 26.4696 26.4621C26.0242 26.9076 25.6013 27.1833 25.0071 27.414C24.559 27.589 23.885 27.7958 22.6441 27.8525C21.3025 27.9135 20.8995 27.9268 17.5014 27.9268C14.103 27.9268 13.7003 27.9135 12.3587 27.8525C11.1178 27.7953 10.4443 27.5879 9.99544 27.4137C9.40152 27.183 8.97729 26.9073 8.53185 26.4618C8.08641 26.0164 7.81066 25.5932 7.57945 24.9991C7.40525 24.551 7.19764 23.8775 7.14117 22.6366C7.08019 21.295 7.06799 20.892 7.06799 17.4934C7.06799 14.0948 7.08019 13.6939 7.14117 12.3522C7.19791 11.1114 7.40525 10.4379 7.57945 9.98928C7.81013 9.39536 8.08641 8.97113 8.53185 8.52569C8.97729 8.08025 9.40152 7.8045 9.99544 7.57329C10.4441 7.3983 11.1178 7.19149 12.3587 7.13448C13.5327 7.08145 13.9877 7.06554 16.3597 7.06289V7.06607ZM24.2949 9.17927C23.4517 9.17927 22.7677 9.86254 22.7677 10.706C22.7677 11.5491 23.4517 12.2332 24.2949 12.2332C25.138 12.2332 25.8221 11.5491 25.8221 10.706C25.8221 9.86281 25.138 9.17874 24.2949 9.17874V9.17927ZM17.5014 10.9637C13.892 10.9637 10.9656 13.8901 10.9656 17.4995C10.9656 21.1089 13.892 24.0339 17.5014 24.0339C21.1108 24.0339 24.0361 21.1089 24.0361 17.4995C24.0361 13.8901 21.1108 10.9637 17.5014 10.9637ZM17.5014 13.2572C19.8442 13.2572 21.7437 15.1564 21.7437 17.4995C21.7437 19.8423 19.8442 21.7418 17.5014 21.7418C15.1583 21.7418 13.2591 19.8423 13.2591 17.4995C13.2591 15.1564 15.1583 13.2572 17.5014 13.2572Z" fill="white"/>
</g>
<defs>
<radialGradient id="paint0_radial_3666_2454" cx="0" cy="0" r="1" gradientUnits="userSpaceOnUse" gradientTransform="translate(9.42313 37.3855) rotate(-90) scale(34.1581 31.7784)">
<stop stop-color="#FFDD55"/>
<stop offset="0.1" stop-color="#FFDD55"/>
<stop offset="0.5" stop-color="#FF543E"/>
<stop offset="1" stop-color="#C837AB"/>
</radialGradient>
<radialGradient id="paint1_radial_3666_2454" cx="0" cy="0" r="1" gradientUnits="userSpaceOnUse" gradientTransform="translate(-5.50914 2.74799) rotate(78.6776) scale(15.269 62.9552)">
<stop stop-color="#3771C8"/>
<stop offset="0.128" stop-color="#3771C8"/>
<stop offset="1" stop-color="#6600FF" stop-opacity="0"/>
</radialGradient>
<clipPath id="clip0_3666_2454">
<rect width="35" height="34.9989" fill="white"/>
</clipPath>
</defs>
</svg>
