<svg width="32" height="32" viewBox="0 0 32 32" fill="none" xmlns="http://www.w3.org/2000/svg">
<path d="M19 8C19.6 8 20 7.6 20 7V5C20 3.3 18.7 2 17 2H7C5.3 2 4 3.3 4 5V27C4 28.7 5.3 30 7 30H17C18.7 30 20 28.7 20 27V23C20 22.4 19.6 22 19 22H6V8H19ZM11 25H13C13.6 25 14 25.4 14 26C14 26.6 13.6 27 13 27H11C10.4 27 10 26.6 10 26C10 25.4 10.4 25 11 25Z" fill="white"/>
<path d="M14 19C13.7 19 13.5 18.9 13.3 18.7L10.3 15.7C9.9 15.3 9.9 14.7 10.3 14.3L13.3 11.3C13.7 10.9 14.3 10.9 14.7 11.3C15.1 11.7 15.1 12.3 14.7 12.7L12.4 15L14.7 17.3C15.1 17.7 15.1 18.3 14.7 18.7C14.5 18.9 14.3 19 14 19Z" fill="white"/>
<path d="M24 19C23.7 19 23.5 18.9 23.3 18.7C22.9 18.3 22.9 17.7 23.3 17.3L25.6 15L23.3 12.7C22.9 12.3 22.9 11.7 23.3 11.3C23.7 10.9 24.3 10.9 24.7 11.3L27.7 14.3C28.1 14.7 28.1 15.3 27.7 15.7L24.7 18.7C24.5 18.9 24.3 19 24 19Z" fill="white"/>
<path d="M17 20C16.9 20 16.7 20 16.6 19.9C16.1 19.7 15.9 19.1 16.2 18.6L20.2 10.6C20.4 10.1 21 9.90004 21.5 10.2C22 10.4 22.2 11 21.9 11.5L17.9 19.5C17.7 19.8 17.4 20 17 20Z" fill="white"/>
</svg>
