<svg width="24" height="24" viewBox="0 0 24 24" fill="none" xmlns="http://www.w3.org/2000/svg">
<path d="M12 1C5.93429 1 1 5.93429 1 12C1 18.0657 5.93429 23 12 23C18.0657 23 23 18.0657 23 12C23 5.93429 18.0657 1 12 1ZM12 21.1682C6.94449 21.1682 2.83184 17.0555 2.83184 12C2.83184 6.94449 6.94449 2.83184 12 2.83184C17.0555 2.83184 21.1682 6.94449 21.1682 12C21.1682 17.0555 17.0555 21.1682 12 21.1682Z" fill="#CBC6FD"/>
<path d="M16.5616 11.0841H12.9159V7.43838C12.9159 6.93103 12.5074 6.52246 12 6.52246C11.4927 6.52246 11.0841 6.93103 11.0841 7.43838V11.0841H7.43838C6.93103 11.0841 6.52246 11.4927 6.52246 12C6.52246 12.5074 6.93103 12.9159 7.43838 12.9159H11.0841V16.5616C11.0841 17.069 11.4927 17.4776 12 17.4776C12.5074 17.4776 12.9159 17.069 12.9159 16.5616V12.9159H16.5616C17.069 12.9159 17.4776 12.5074 17.4776 12C17.4776 11.4927 17.069 11.0841 16.5616 11.0841Z" fill="#CBC6FD"/>
</svg>
