<svg width="32" height="32" viewBox="0 0 32 32" fill="none" xmlns="http://www.w3.org/2000/svg">
<path d="M18.1376 21.1953C17.6724 21.3834 17.2072 21.5244 16.649 21.5714C13.2531 21.9476 10.4155 19.2676 10.4155 15.9295C10.4155 15.3653 10.5085 14.8011 10.648 14.2369C10.7411 14.0018 11.0202 13.9548 11.1598 14.0958L14.3231 17.2929C14.5557 17.528 14.9278 17.528 15.2069 17.2929L17.4398 15.0362C17.6724 14.8011 17.6724 14.425 17.4398 14.1429L14.2765 10.9458C14.137 10.7577 14.1835 10.4756 14.4161 10.4286C14.9278 10.2875 15.486 10.1935 16.0443 10.1935C19.3471 10.1935 21.9987 13.0615 21.6266 16.4937C21.58 17.0108 21.4405 17.481 21.2544 17.9982L27.1158 23.9222C28.9301 21.7595 30 18.9855 30 16.0235C29.9535 8.73599 23.7199 3 15.9977 3C8.22905 3 2.04201 8.783 2.04201 15.8825C2.04201 18.1392 2.69328 20.255 3.7167 22.1356C3.90278 22.4177 3.94929 22.7939 3.85626 23.123L2.04201 28.1537C1.85593 28.6239 2.32113 29.047 2.78632 28.906L7.8569 26.9783C8.13601 26.8373 8.50817 26.9313 8.8338 27.1193C10.9272 28.2948 13.4392 29 16.1373 29C18.9285 28.953 21.5335 28.1537 23.7199 26.8373L18.1376 21.1953Z" fill="#CBC6FD"/>
</svg>
