<svg width="32" height="32" viewBox="0 0 32 32" fill="none" xmlns="http://www.w3.org/2000/svg">
<path fill-rule="evenodd" clip-rule="evenodd" d="M16 28C22.6275 28 28 22.6275 28 16C28 13.5555 27.2691 11.2817 26.0137 9.38521L16.4733 19.9857C15.5499 21.0119 13.9957 21.1635 12.8913 20.3351L8.53333 17.0667C7.94423 16.6248 7.82484 15.7891 8.26667 15.2C8.70849 14.6109 9.54423 14.4915 10.1333 14.9333L14.4912 18.2017L24.2853 7.3194C22.1315 5.26289 19.2132 4 16 4C9.37259 4 4 9.37259 4 16C4 22.6275 9.37259 28 16 28Z" fill="white"/>
</svg>
