<svg width="24" height="24" viewBox="0 0 24 24" fill="none" xmlns="http://www.w3.org/2000/svg">
<path d="M24 1.33333V5.33333H0V1.33333C0 0.979711 0.140476 0.640573 0.390524 0.390524C0.640573 0.140476 0.979711 0 1.33333 0H22.6667C23.0203 0 23.3594 0.140476 23.6095 0.390524C23.8595 0.640573 24 0.979711 24 1.33333ZM0 8H24V22.6667C24 23.0203 23.8595 23.3594 23.6095 23.6095C23.3594 23.8595 23.0203 24 22.6667 24H1.33333C1.11813 23.9957 0.907362 23.938 0.72 23.832L5.50267 19.0493L8.59333 21.1093C8.84983 21.2804 9.15767 21.3572 9.46447 21.3268C9.77126 21.2965 10.058 21.1607 10.276 20.9427L12.9427 18.276C13.1855 18.0245 13.3199 17.6877 13.3169 17.3381C13.3139 16.9885 13.1736 16.6541 12.9264 16.4069C12.6792 16.1597 12.3448 16.0195 11.9952 16.0164C11.6456 16.0134 11.3088 16.1478 11.0573 16.3907L9.164 18.284L6.07333 16.224C5.81683 16.053 5.50899 15.9761 5.2022 16.0065C4.89541 16.0369 4.60863 16.1726 4.39067 16.3907L0 20.7813V8ZM15.0573 14.276C15.3074 14.526 15.6464 14.6664 16 14.6664C16.3536 14.6664 16.6926 14.526 16.9427 14.276L18.276 12.9427C18.5189 12.6912 18.6533 12.3544 18.6502 12.0048C18.6472 11.6552 18.507 11.3208 18.2598 11.0736C18.0125 10.8264 17.6781 10.6861 17.3285 10.6831C16.9789 10.6801 16.6421 10.8145 16.3907 11.0573L15.0573 12.3907C14.8074 12.6407 14.667 12.9798 14.667 13.3333C14.667 13.6869 14.8074 14.026 15.0573 14.276Z" fill="white"/>
</svg>
