<svg width="32" height="31" viewBox="0 0 32 31" fill="none" xmlns="http://www.w3.org/2000/svg">
<g filter="url(#filter0_d_1505_6047)">
<path fill-rule="evenodd" clip-rule="evenodd" d="M16 2C8.82029 2 3 7.82029 3 15C3 17.3599 3.62986 19.5755 4.73065 21.4848C4.95484 21.8736 4.99329 22.3471 4.8041 22.7541L3.69428 25.1421C3.01282 26.4313 3.94557 28 5.42007 28H16C23.1796 28 29 22.1796 29 15C29 7.82029 23.1796 2 16 2ZM10.8003 16.69C11.7336 16.69 12.4903 15.9333 12.4903 15C12.4903 14.0666 11.7336 13.31 10.8003 13.31C9.8669 13.31 9.11026 14.0666 9.11026 15C9.11026 15.9333 9.8669 16.69 10.8003 16.69ZM21.2003 16.69C22.1337 16.69 22.8903 15.9333 22.8903 15C22.8903 14.0666 22.1337 13.31 21.2003 13.31C20.2669 13.31 19.5103 14.0666 19.5103 15C19.5103 15.9333 20.2669 16.69 21.2003 16.69ZM16.0003 16.69C16.9337 16.69 17.6903 15.9333 17.6903 15C17.6903 14.0666 16.9337 13.31 16.0003 13.31C15.0669 13.31 14.3103 14.0666 14.3103 15C14.3103 15.9333 15.0669 16.69 16.0003 16.69Z" fill="white"/>
</g>
<defs>
<filter id="filter0_d_1505_6047" x="0" y="0" width="32" height="32" filterUnits="userSpaceOnUse" color-interpolation-filters="sRGB">
<feFlood flood-opacity="0" result="BackgroundImageFix"/>
<feColorMatrix in="SourceAlpha" type="matrix" values="0 0 0 0 0 0 0 0 0 0 0 0 0 0 0 0 0 0 127 0" result="hardAlpha"/>
<feOffset dy="1"/>
<feGaussianBlur stdDeviation="1.5"/>
<feComposite in2="hardAlpha" operator="out"/>
<feColorMatrix type="matrix" values="0 0 0 0 0.122417 0 0 0 0 0.0270833 0 0 0 0 0.325 0 0 0 0.55 0"/>
<feBlend mode="normal" in2="BackgroundImageFix" result="effect1_dropShadow_1505_6047"/>
<feBlend mode="normal" in="SourceGraphic" in2="effect1_dropShadow_1505_6047" result="shape"/>
</filter>
</defs>
</svg>
