<svg width="32" height="32" viewBox="0 0 32 32" fill="none" xmlns="http://www.w3.org/2000/svg">
<path fill-rule="evenodd" clip-rule="evenodd" d="M18.5453 7.33333C18.5453 4.94009 20.6618 3 23.2726 3C25.8834 3 27.9999 4.94009 27.9999 7.33333C27.9999 9.72656 25.8834 11.6667 23.2726 11.6667C21.9543 11.6667 20.7629 11.1717 19.9064 10.3755L13.3623 14.4783C13.4227 14.7552 13.4545 15.0412 13.4545 15.3334C13.4545 15.9119 13.3302 16.4649 13.1052 16.9703L20.2808 21.3115C21.0952 20.7009 22.1372 20.3333 23.2726 20.3333C25.8834 20.3333 27.9999 22.2734 27.9999 24.6667C27.9999 27.0599 25.8834 29 23.2726 29C20.6618 29 18.5453 27.0599 18.5453 24.6667C18.5453 24.0399 18.691 23.4431 18.9529 22.9044L11.8353 18.5983C11.005 19.2627 9.91743 19.6667 8.72714 19.6667C6.11635 19.6667 3.99988 17.7265 3.99988 15.3334C3.99988 12.9401 6.11635 11 8.72714 11C10.2284 11 11.5649 11.6414 12.4302 12.6397L18.7724 8.66335C18.6249 8.24367 18.5453 7.79648 18.5453 7.33333Z" fill="white"/>
</svg>
