<svg width="35" height="35" viewBox="0 0 35 35" fill="none" xmlns="http://www.w3.org/2000/svg">
<g clip-path="url(#clip0_3666_2449)">
<path d="M17.5 35C27.165 35 35 27.165 35 17.5C35 7.83502 27.165 0 17.5 0C7.83502 0 0 7.83502 0 17.5C0 27.165 7.83502 35 17.5 35Z" fill="url(#paint0_linear_3666_2449)"/>
<path d="M11.8457 18.7792L13.9219 24.526C13.9219 24.526 14.1815 25.0636 14.4595 25.0636C14.7374 25.0636 18.8717 20.7627 18.8717 20.7627L23.4691 11.8829L11.9198 17.2958L11.8457 18.7792Z" fill="#C8DAEA"/>
<path d="M14.5989 20.2531L14.2003 24.4889C14.2003 24.4889 14.0335 25.7868 15.3311 24.4889C16.6288 23.191 17.8708 22.1902 17.8708 22.1902" fill="#A9C6D8"/>
<path d="M11.8839 18.9843L7.61304 17.5928C7.61304 17.5928 7.10263 17.3857 7.26698 16.9161C7.30082 16.8193 7.36907 16.7369 7.57323 16.5953C8.51954 15.9357 25.0887 9.98026 25.0887 9.98026C25.0887 9.98026 25.5565 9.82261 25.8324 9.92747C25.9007 9.9486 25.9621 9.98748 26.0104 10.0401C26.0587 10.0928 26.0922 10.1573 26.1073 10.2272C26.1371 10.3505 26.1496 10.4774 26.1444 10.6041C26.1431 10.7138 26.1298 10.8154 26.1197 10.9748C26.0188 12.6031 22.9989 24.7551 22.9989 24.7551C22.9989 24.7551 22.8182 25.4662 22.1709 25.4905C22.0118 25.4956 21.8533 25.4687 21.7048 25.4113C21.5564 25.3538 21.421 25.2671 21.3068 25.1563C20.0364 24.0635 15.6457 21.1127 14.6755 20.4638C14.6536 20.4489 14.6351 20.4294 14.6214 20.4068C14.6077 20.3842 14.599 20.3588 14.5958 20.3325C14.5823 20.2641 14.6566 20.1794 14.6566 20.1794C14.6566 20.1794 22.3021 13.3836 22.5055 12.6702C22.5213 12.6149 22.4618 12.5876 22.3819 12.6118C21.8741 12.7986 13.0713 18.3577 12.0998 18.9712C12.0298 18.9923 11.9559 18.9968 11.8839 18.9843Z" fill="white"/>
</g>
<defs>
<linearGradient id="paint0_linear_3666_2449" x1="17.5" y1="35" x2="17.5" y2="0" gradientUnits="userSpaceOnUse">
<stop stop-color="#1D93D2"/>
<stop offset="1" stop-color="#38B0E3"/>
</linearGradient>
<clipPath id="clip0_3666_2449">
<rect width="35" height="35" fill="white"/>
</clipPath>
</defs>
</svg>
