<svg width="32" height="32" viewBox="0 0 32 32" fill="none" xmlns="http://www.w3.org/2000/svg">
<path d="M20.4296 13.8442C20.5061 14.5945 20.55 15.3206 20.55 16.0002C20.55 17.2724 20.3962 18.7089 20.161 20.1613C18.7086 20.3965 17.2721 20.5502 16 20.5502C14.7336 20.5502 13.2975 20.3969 11.8388 20.1609C11.6037 18.7085 11.45 17.2722 11.45 16.0002C11.45 15.3209 11.4938 14.5946 11.5705 13.8442C13.1014 14.0893 14.6286 14.2502 16 14.2502C17.3714 14.2502 18.8986 14.0893 20.4296 13.8442Z" fill="white"/>
<path d="M22.5003 13.466C22.595 14.344 22.65 15.1988 22.65 16.0001C22.65 17.1693 22.533 18.452 22.3466 19.7539C24.99 19.2023 27.4334 18.4976 28.7423 18.0964C29.1652 17.9668 29.3315 17.9152 29.5544 17.826C29.6659 17.7815 29.768 17.7361 29.9012 17.6725C29.9664 17.1241 30 16.566 30 16.0001C30 14.5041 29.7654 13.063 29.331 11.7114L29.2178 11.747C27.8491 12.1634 25.287 12.8995 22.5003 13.466Z" fill="white"/>
<path d="M28.5356 9.75924C27.1598 10.1762 24.772 10.8538 22.2132 11.3813C21.6238 7.79895 20.5907 4.22595 20.0936 2.60791C23.7896 3.7363 26.8364 6.35283 28.5356 9.75924Z" fill="white"/>
<path d="M20.1489 11.7631C18.7004 11.9971 17.2684 12.15 16 12.15C14.7316 12.15 13.2996 11.9971 11.8512 11.7631C12.4062 8.3734 13.397 4.91075 13.9037 3.25777C14.0333 2.83475 14.0849 2.66859 14.1741 2.44557C14.2186 2.33416 14.264 2.23197 14.3276 2.09885C14.876 2.03357 15.4341 2 16 2C16.5912 2 17.1737 2.03664 17.7457 2.10777C17.7578 2.15419 17.769 2.19572 17.7801 2.23501C17.8129 2.35111 17.8642 2.51427 17.9504 2.78805L17.9594 2.81681C18.3913 4.18964 19.5358 8.01868 20.1489 11.7631Z" fill="white"/>
<path d="M9.78673 11.3813C10.3735 7.81471 11.3998 4.26096 11.8959 2.64236L11.9065 2.60791C8.21037 3.73628 5.16361 6.35282 3.46448 9.75923C4.84025 10.1762 7.22794 10.8538 9.78673 11.3813Z" fill="white"/>
<path d="M2.66912 11.7114C2.23464 13.063 2 14.5042 2 16.0002C2 16.5854 2.03591 17.1622 2.10564 17.7286L2.32628 17.8022L2.32804 17.8027L2.3302 17.8035L2.33172 17.8039C2.40273 17.8275 4.48407 18.5148 7.22504 19.1968C7.99848 19.3892 8.81743 19.5794 9.65341 19.7536C9.467 18.4519 9.35 17.1694 9.35 16.0002C9.35 15.1986 9.40499 14.3438 9.49963 13.466C6.71237 12.8993 4.14957 12.163 2.78129 11.7467L2.77177 11.7438L2.66912 11.7114Z" fill="white"/>
<path d="M16 22.6501C17.1692 22.6501 18.4518 22.5331 19.7537 22.3467C19.2021 24.9901 18.4974 27.4335 18.0962 28.7423C17.9666 29.1653 17.915 29.3315 17.8258 29.5545C17.7813 29.666 17.736 29.7681 17.6724 29.9013C17.124 29.9665 16.5658 30.0001 16 30.0001C15.4341 30.0001 14.876 29.9665 14.3276 29.9013C14.264 29.7681 14.2186 29.666 14.1741 29.5545C14.0849 29.3316 14.0333 29.1653 13.9037 28.7424C13.5025 27.4336 12.7979 24.9904 12.2463 22.3472C13.5438 22.5329 14.8268 22.6501 16 22.6501Z" fill="white"/>
<path d="M6.71795 21.2347C4.98466 20.8034 3.50842 20.3701 2.60791 20.0938C3.96339 24.5337 7.46638 28.0367 11.9064 29.3921L11.8958 29.3577C11.4627 27.9444 10.6252 25.0557 10.0292 21.9713C8.86995 21.7472 7.74291 21.4896 6.71795 21.2347Z" fill="white"/>
<path d="M29.3576 20.1043C27.9443 20.5375 25.0554 21.3749 21.9708 21.9709C21.3748 25.0555 20.5374 27.9443 20.1042 29.3577L20.0936 29.3921C24.5336 28.0367 28.0366 24.5337 29.392 20.0938L29.3576 20.1043Z" fill="white"/>
<path d="M2.14709 17.7642C2.19556 17.7704 2.23507 17.7771 2.24817 17.78C2.25965 17.7828 2.27764 17.7876 2.28416 17.7894L2.29857 17.7935L2.30633 17.7959L2.31449 17.7984L2.32133 17.8006C2.31749 17.7994 2.23971 17.7799 2.14709 17.7642Z" fill="white"/>
</svg>
